<?xml version="1.0" encoding="utf-8"?>
<!-- Generator: Adobe Illustrator 19.0.0, SVG Export Plug-In . SVG Version: 6.00 Build 0)  -->
<svg version="1.1" id="Capa_1" xmlns="http://www.w3.org/2000/svg" xmlns:xlink="http://www.w3.org/1999/xlink" x="0px" y="0px"
	 viewBox="-253 375.9 88 90" style="enable-background:new -253 375.9 88 90;" xml:space="preserve">
<style type="text/css">
	.st0{fill:#FFFFFF;}
</style>
<path class="st0" d="M-209,381c-22,0-39.9,17.9-39.9,39.9s17.9,39.9,39.9,39.9s39.9-17.9,39.9-39.9S-187,381-209,381z M-209,457.8
	c-20.3,0-36.9-16.5-36.9-36.9c0-20.3,16.5-36.9,36.9-36.9s36.9,16.5,36.9,36.9C-172.1,441.2-188.7,457.8-209,457.8z M-196.4,428
	c3.4-4,5.3-9.5,5.3-15.4c0-11.2-7.3-19.1-17.8-19.1s-17.8,7.9-17.8,19.1c0,6,2,11.4,5.3,15.3c-5.7,3-10.1,8-12.7,14.8
	c-0.3,0.8,0.1,1.6,0.8,1.9c0.2,0.1,0.4,0.1,0.5,0.1c0.6,0,1.2-0.4,1.4-1c2.5-6.4,6.7-11,12.1-13.6c2.9,2.5,6.5,4,10.3,4
	c3.7,0,7.3-1.4,10.3-4c5.4,2.6,9.6,7.2,12.1,13.6c0.2,0.6,0.8,1,1.4,1c0.2,0,0.4,0,0.5-0.1c0.8-0.3,1.1-1.2,0.8-1.9
	C-186.4,436.1-190.7,431-196.4,428z M-200,427.4c-2.6,2.5-5.7,3.9-9,3.9c-8.2,0-14.8-8.3-14.8-18.6c0-9.6,6-16.1,14.8-16.1
	s14.8,6.5,14.8,16.1C-194.2,418.5-196.3,423.8-200,427.4z"/>
</svg>
