<?xml version="1.0" encoding="utf-8"?>
<!-- Generator: Adobe Illustrator 19.0.0, SVG Export Plug-In . SVG Version: 6.00 Build 0)  -->
<svg version="1.1" id="Capa_1" xmlns="http://www.w3.org/2000/svg" xmlns:xlink="http://www.w3.org/1999/xlink" x="0px" y="0px"
	 viewBox="-247 358.9 100 93.4" style="enable-background:new -247 358.9 100 93.4;" xml:space="preserve">
<style type="text/css">
	.st0{fill:#FFFFFF;}
</style>
<title>A</title>
<path class="st0" d="M-188.7,373.4c-2.7-4.6-8.5-6.2-13.1-3.5c-1.5,0.8-2.7,2.1-3.5,3.5l-35.4,61.3c-2.7,4.6-1.1,10.5,3.5,13.1
	c1.5,0.8,3.1,1.3,4.8,1.3h70.8c5.3,0,9.6-4.3,9.6-9.6c0-1.7-0.4-3.3-1.3-4.8L-188.7,373.4z M-158.5,441.3c-0.6,1.1-1.8,1.8-3.1,1.8
	h-70.8c-2,0-3.6-1.6-3.6-3.6c0-0.6,0.2-1.3,0.5-1.8l35.4-61.3c1-1.7,3.2-2.3,4.9-1.3c0.5,0.3,1,0.8,1.3,1.3l35.4,61.3
	C-157.8,438.8-157.8,440.2-158.5,441.3L-158.5,441.3z"/>
<path class="st0" d="M-197,422.8c1.7,0,3-1.3,3-3v-26.5c0-1.7-1.3-3-3-3c-1.7,0-3,1.3-3,3v26.5C-200,421.4-198.7,422.8-197,422.8z"
	/>
<path class="st0" d="M-197,428.8c-1.8,0-3.2,1.4-3.2,3.2c0,1.8,1.4,3.2,3.2,3.2c1.8,0,3.2-1.4,3.2-3.2c0,0,0,0,0,0
	C-193.8,430.2-195.2,428.8-197,428.8C-197,428.8-197,428.8-197,428.8z"/>
</svg>
