<?xml version="1.0" encoding="utf-8"?>
<!-- Generator: Adobe Illustrator 19.0.0, SVG Export Plug-In . SVG Version: 6.00 Build 0)  -->
<svg version="1.1" id="Camada_1" xmlns="http://www.w3.org/2000/svg" xmlns:xlink="http://www.w3.org/1999/xlink" x="0px" y="0px"
	 viewBox="0 0 842 172" style="enable-background:new 0 0 842 172;" xml:space="preserve">
<style type="text/css">
	.st0{fill:#D0D2D3;}
	.st1{fill:#084478;}
	.st2{filter:url(#Adobe_OpacityMaskFilter);}
	.st3{fill:#FFFFFF;}
	.st4{mask:url(#b_1_);fill:#084478;}
</style>
<g>
	<path class="st0" d="M221.7,26.4c-0.4-13.6-11.6-24.3-25.2-23.9c-13.1,0.3-23.6,10.9-23.9,24l-39.2,0.1l2.9,6.5L197.5,172
		l61.2-140.4l2.3-5.2C261,26.4,221.7,26.4,221.7,26.4z"/>
	<path class="st1" d="M161,49.5c9.2,4.4,15.9,0.4,15.9,0.4s-11.2,8.1-3.9,22.3l-6.4,3.4l8.9,19.8c0,0,6.7-0.5,8.2-3.8
		c0,0-4-8.8-2.1-12.5c0,0,1.4,0.9,4.2,1.5c3.1,0.7,6.5,0.7,10.2-1.4c1.3-0.7,1.9-1.8,1.9-0.2c0.1,1.6,3.1,7.2-3,15.1
		c-6.1,7.9-13.5,14.3-11.9,18.2l15.1,34.1l25.3-57.2c0,0-4.4,1.4-6.4-1.6c-1.9-2.8-1.2-7.1,2.9-9.5c0,0-1.4-5.7,1.1-5
		c0,0,1,0.8,2,1.4c1,0.5,4.5,3.9,7.1-2.1c2.1-4.7,11.1-26.8,15.2-36.7h-6.2l-13.8,31.6c0,0,1.3-4.2,1.6-6.9
		c0.8-7.3-2.1-10.4-2.1-10.4c0-0.4,0.1-0.8,0-1.1h0c0-0.9-0.1-1.6-0.2-2.3h0c0-0.3-0.1-0.5-0.2-0.8c-1.5-5-6.5-5.5-6.5-5.5
		c-1.7-0.3-2.1-1.3-4.3-1.5c-3.3-0.3-6.9,1.4-6.9,1.4s-2.9,1.7-3.4-1.6c-0.4-2.5,3-3.6,3-3.6c0.1-0.1,2.5-0.8,1.6-3.1
		c1-1.3,3.4-4.6,1.2-6.8c-2.1-2.1-3.1-4.8-5.8-5.6c-3.1-0.9-4.2-0.2-4.2-0.2c-4.2-3.6-6.7,0-6.7,0c-3.5,0.4-2,5.2-2,5.2
		c-3.3,2.3-0.8,5.3-0.9,6c-0.1,0.7-1.1,1.5-1.8,2.8c-0.7,1.4,0.9,2.9,0.9,2.9s1,1.1-1.4,0.4c-2.4-0.7-4.8-2.7-10.6,0.9
		c-7.5,4.8-13.9,4.2-13.9,4.2s-4.8-3.9-8-5c-3.1-1.1-5,0.2-5.5,2.3c-0.3,1.2,0.3,3.3,2.3,3.6c0,0-0.6,0.4-0.8,1.5
		C150.4,46.5,154.9,49.5,161,49.5"/>
	<path class="st0" d="M188.4,63.7c0,0-3.5-0.3-3.6-2.2c-0.1-2.2,8.2,4,10.7-1.4c2.3-4.9,1.6-13.6,9-16.8c0,0-5.4,0.5-4.1-7.9
		c0,0,2.7-0.7,2.9-2.3c0.3-1.6-0.3-1.8-2-1.5c0,0-1.6-0.8-2-4.2c0,0-4-0.1-5.6-1.7c0,0-3.2,0.6-1.4,4.9c0,0,0.7,0.8-0.9,2.1
		c-1.6,1.3-0.2,1.3,0.4,2.4c0.6,1.1-3.1,3.3,2.5,5.4c0,0-1.5,0.4-3.9,0.3c-2.4-0.2-5.7-3.6-10.2-1.7c-5.1,2.2-9.9,5.8-18.6,5
		c0,0-2.5-2.3-2.8-2.7c-0.3-0.4-1.2-0.5-1.5-0.5c0,0-4.6-3.1-5.4-2.5c0,0,0,1.1,1.1,1.5c0,0-2.3-0.5-2.4-0.3c0,0-0.4,1,1.5,1.2
		c0,0,3.7,1.1,4.7,3l0.2,0.3c0,0.1,0.1,0.2,0.1,0.3c0,0.3-0.2,0.8-0.4,0.7c-0.3-0.1-2.6-1.2-3.5-1.1c-0.6,0.1-0.7,0.9,0.6,1.5
		c0,0,2.5,1,3.2,1.5c0,0,1.8,1.2,3.7,0.4l0.2,0.1l3.2,0.7c3.1,0.7,6.1,1.1,11-0.6c0,0,14.4-5.8,4.8,3.9c0,0-12.4,12.3-0.1,21.9
		c0,0,12.7,10.1,17.5,0C197.2,73.3,200.3,65.3,188.4,63.7"/>
	<path class="st1" d="M194.4,30.4l-0.1,0c-0.3,0.1-0.6,0.4-0.6,0.7c0,0.4,0.3,0.8,0.8,0.8c0.4,0,0.6-0.2,0.7-0.6
		c0.1-0.1,0.3-0.3,0.8-0.1c0.6,0.3,0.7,0.2,0.9-0.3C197.1,30.5,195.4,30.2,194.4,30.4"/>
	<path class="st0" d="M217.7,45.7c-1.2-0.7-4.2-1.3-4.2-1.3s-0.5-0.2-0.6,0c-2.2,3.4-9.5,3.9-9.4,5.6c0.1,1.6,4.9,2.1,4.2,3.4
		c-0.5,0.9-1.9,0.7-3.1,0.3c-0.4,0.6-1.2,0.9-1.8,0.5c-0.3-0.1-0.5-0.4-0.6-0.6c-0.1,0.3-0.4,0.6-0.7,0.8c-2.5,1.8-2.3,6.5-2.3,6.5
		c1.2-1,6.4-0.2,6.4-0.2l2.4-4.7c1.3-4.9,7.3-0.8,7.2,0.6c-0.1,0.7-1.2,0.5-2.2,0.1c-0.2,0.7-0.9,1.2-1.7,1c-0.7-0.2-1.2-0.9-1-1.7
		l0,0c-3.6,1.7-0.6,10.1-0.6,10.1l4.1-2.8C221.8,59.8,217.7,45.7,217.7,45.7"/>
	<path class="st1" d="M285.6,85.5c-6.5,0-10.8-0.7-16-2.6v-12c4.6,1.7,9.4,2.9,14.3,2.9c4.5,0,6.2-1.3,6.2-3.8
		c0-3.6-5.1-4.6-10.3-6.1c-5.7-1.7-11.6-4.9-11.6-14.2c0-9.4,5.7-16,19-16c5.1,0,8.8,0.7,12.9,1.9v11.6c-4.4-1-8.5-1.7-12.1-1.7
		c-5.4,0-6.4,1.5-6.4,3.4c0,3.1,4.3,3.9,9,5.2c6,1.7,12.8,4.7,12.8,15C303.3,79.1,296.6,85.5,285.6,85.5 M327.3,72.9v-5.7
		c-1.2-0.2-2.3-0.4-3.5-0.4c-4.5,0-5.9,2-5.9,4.5c0,2.5,1.7,4,4.5,4C324.3,75.3,326.1,74.2,327.3,72.9z M309.4,45
		c0,0,5.6-2.1,14-2.1c8.4,0,16.6,2.5,16.6,16.7v24.8h-8.9l-1.5-4.4h-0.4c0,0-3.4,5.3-10.4,5.3c-7.5,0-12.9-4-12.9-13
		c0-9.6,6.3-13.6,15.2-13.6c2.1,0,4.2,0.2,6.2,0.7V58c0-2.5-1.2-4.9-6.7-4.9c-5.5,0-11.1,1.8-11.1,1.8V45z M358.3,84.5h-12.8V43.7
		h8.8l1.4,4.7l0.1-0.1h0.5c3.2-3.6,7.1-5.3,11.2-5.3c8.4,0,13.8,5.3,13.8,15v26.5h-12.8V59c0-3.7-1.5-5.2-4.9-5.2
		c-1.7,0-3.7,0.7-5.3,2.8L358.3,84.5L358.3,84.5z M435.5,47.1c-2.3-0.8-6.7-1.5-9.9-1.5c-8,0-9.9,3.2-9.9,13.7
		c0,11.1,2.1,14.3,10.1,14.3c3.1,0,7.4-0.7,9.8-1.8v11.2c-3.3,1.6-7.9,2.4-11.8,2.4c-15.2,0-22.7-8.5-22.7-26.2
		c0-16.4,7.3-25.6,23.7-25.6c3.6,0,8,0.5,10.8,1.7C435.5,35.3,435.5,47.1,435.5,47.1z M453.2,84.5h-12.8V43.7h8.8l1.7,7.1h0.7
		c1.9-5.2,4.9-7.9,8.4-7.9c1.6,0,2.7,0.3,3.5,0.7v11c-1-0.2-1.9-0.3-2.9-0.3c-3.8,0-6,1.6-7.6,5.4V84.5z"/>
	<defs>
		<filter id="Adobe_OpacityMaskFilter" filterUnits="userSpaceOnUse" x="467.4" y="30.2" width="216.4" height="100.1">
			<feColorMatrix  type="matrix" values="1 0 0 0 0  0 1 0 0 0  0 0 1 0 0  0 0 0 1 0"/>
		</filter>
	</defs>
	<mask maskUnits="userSpaceOnUse" x="467.4" y="30.2" width="216.4" height="100.1" id="b_1_">
		<g class="st2">
			<path id="a_1_" class="st3" d="M133.4,172h550.4V2.4H133.4V172z"/>
		</g>
	</mask>
	<path class="st4" d="M467.8,84.5h13.1V43.7h-13.1V84.5z M474.4,40.8c-4.8,0-7-1.4-7-5.3c0-3.4,2.2-5.3,7-5.3c4.9,0,6.9,1.9,6.9,5.3
		C481.3,39,479.3,40.8,474.4,40.8z M501.2,85.5c-5.3,0-9.4-0.7-13.2-1.8V73.2c3.5,1.3,8.5,2.2,11.8,2.2c3.1,0,4.5-1.3,4.5-3
		c0-3-4.3-3-8.4-4.5c-4.5-1.6-9.4-3.6-9.4-11.4c0-8.1,4.9-13.6,15.4-13.6c4.3,0,8.3,0.6,11.8,1.7v10c-3.1-1-7.4-1.6-10.1-1.6
		c-3.4,0-4.8,1.3-4.8,2.7c0,2.6,3.4,2.6,7.2,3.7c4.8,1.4,10.2,3.2,10.2,11.8C516.1,79.6,511.7,85.5,501.2,85.5 M534.7,53.5v17.8
		c0,2.6,1.3,3.7,4.2,3.7c1,0,3.1-0.2,3.8-0.5V84c-1.5,0.7-4.5,1.3-7.7,1.3c-8.9,0-13.1-5.1-13.1-13.1V53.5H518v-9.8h4.5l0.1-8.1
		l12.2-1.2v9.3h8.4v9.8C543.1,53.5,534.7,53.5,534.7,53.5z M575.7,31.6l-6.6,8.6h-9.5l3-8.6L575.7,31.6L575.7,31.6z M564.5,75.4
		c4.4,0,5.9-2.1,5.9-11.1c0-9.1-1.5-11.1-5.9-11.1c-4.5,0-6,2-6,11.1C558.5,73.4,560.1,75.4,564.5,75.4z M564.4,85.4
		c-13.3,0-19.2-6.2-19.2-21.1s6-21.3,19.3-21.3c13.4,0,19.2,6.4,19.2,21.3S577.9,85.4,564.4,85.4z M606.3,53.9
		c-2.3,0-4.2,1.1-5.3,2.9v14.8c1.1,1.5,2.8,2.8,5.4,2.8c3.7,0,5.7-1.7,5.7-10.1C612.1,55.1,610.3,53.9,606.3,53.9z M601,46.9
		c2.7-2.8,6.3-3.8,9.7-3.8c9,0,14.6,6.6,14.6,20.9c0,14.7-4.9,21.3-15.5,21.3c-4.5,0-8.6-2-11.2-5.2h-0.4l-1.4,4.4h-8.6V32.2L601,31
		v9.6c0,1.1-0.5,6.3-0.5,6.3H601L601,46.9z M649.6,72.9v-5.7c-1.2-0.2-2.3-0.4-3.5-0.4c-4.5,0-5.9,2-5.9,4.5c0,2.5,1.7,4,4.5,4
		C646.7,75.3,648.4,74.2,649.6,72.9L649.6,72.9z M631.8,45c0,0,5.6-2.1,14-2.1c8.4,0,16.6,2.5,16.6,16.7v24.8h-8.8l-1.5-4.4h-0.4
		c0,0-3.4,5.3-10.4,5.3c-7.5,0-12.9-4-12.9-13c0-9.6,6.3-13.6,15.2-13.6c2.5,0,5.1,0.4,6.2,0.7V58c0-2.5-1.2-4.9-6.7-4.9
		c-5.5,0-11.1,1.8-11.1,1.8L631.8,45L631.8,45z M668.3,84.5V32.2l13-1.2v53.4H668.3z M552.5,122.7c0,2.3-0.7,4.2-2.1,5.5
		c-1.4,1.3-3.3,2-5.8,2c-1.6,0-2.9-0.1-4.1-0.4c-1.2-0.2-2.3-0.7-3.3-1.2v-3.3c1,0.6,2.1,1.1,3.2,1.3c1.1,0.3,2.3,0.4,3.6,0.4
		c1.6,0,2.9-0.4,3.7-1.1c0.8-0.7,1.2-1.8,1.2-3.1c0-1-0.3-1.8-0.9-2.4c-0.6-0.6-1.4-1.1-2.2-1.4c-0.9-0.4-1.9-0.7-2.9-1
		c-1-0.3-2-0.7-2.9-1.2c-0.9-0.5-1.6-1.2-2.2-2c-0.6-0.8-0.9-2-0.9-3.4c0-1,0.2-1.9,0.5-2.7c0.3-0.9,0.8-1.6,1.5-2.2
		c0.7-0.6,1.5-1.1,2.5-1.5c1-0.4,2.2-0.5,3.7-0.5c1.2,0,2.3,0.1,3.4,0.3c1.1,0.2,2,0.5,2.8,0.8v3.1c-1-0.4-2-0.6-3-0.8
		c-1-0.2-2-0.3-3.1-0.2c-0.9,0-1.6,0.1-2.2,0.3c-0.6,0.2-1.1,0.5-1.5,0.8c-0.4,0.3-0.6,0.7-0.8,1.2c-0.2,0.5-0.3,0.9-0.2,1.4
		c0,0.9,0.3,1.7,0.9,2.2c0.6,0.5,1.3,1,2.2,1.3c0.9,0.3,1.9,0.6,2.9,0.9c1,0.3,2,0.7,2.9,1.2c0.9,0.5,1.6,1.2,2.2,2.1
		C552.2,120,552.5,121.2,552.5,122.7 M557.1,105H571v3.1h-10.4v7.3h9.4v3.1h-9.4v8.2H571v3.1h-13.9V105z M593.9,128.9
		c-1.1,0.5-2.3,0.8-3.5,1c-1.3,0.3-2.7,0.4-4.2,0.4c-2,0-3.7-0.3-5.1-0.8c-1.3-0.5-2.5-1.3-3.5-2.3c-0.9-1.1-1.6-2.4-2-4
		c-0.4-1.6-0.6-3.5-0.6-5.7c0-4.5,0.9-7.8,2.8-9.8c1.9-2.1,4.8-3.1,8.8-3.1c1.3,0,2.6,0.1,3.8,0.3c1.3,0.2,2.4,0.5,3.4,0.9v3.1
		c-1.1-0.4-2.2-0.7-3.3-0.9c-1.2-0.2-2.4-0.3-3.7-0.3c-1.4,0-2.7,0.2-3.7,0.5c-1,0.3-1.9,0.8-2.5,1.6c-0.7,0.7-1.2,1.7-1.5,3
		c-0.3,1.2-0.5,2.8-0.5,4.7c0,1.8,0.1,3.4,0.4,4.6c0.3,1.2,0.7,2.2,1.3,3c0.6,0.8,1.4,1.3,2.3,1.6c0.9,0.3,2.1,0.5,3.5,0.5
		c0.8,0,1.6,0,2.3-0.1c0.7-0.1,1.3-0.2,1.9-0.3v-7.5h-5v-2.9h8.5L593.9,128.9L593.9,128.9z M617.8,120.9c0,3.3-0.8,5.6-2.5,7.1
		c-1.6,1.5-4,2.3-7,2.3c-3,0-5.3-0.8-7-2.3c-1.6-1.5-2.5-3.9-2.5-7.1V105h3.6v16c0,2.2,0.5,3.7,1.4,4.7c1,1,2.4,1.5,4.5,1.5
		c2,0,3.5-0.5,4.5-1.5c0.9-1,1.4-2.6,1.4-4.7v-16h3.6L617.8,120.9L617.8,120.9z M636.2,112.2c0-1.5-0.4-2.6-1.1-3.2
		c-0.7-0.6-1.9-0.9-3.4-0.9h-5.1v8.4h5c1.6,0,2.8-0.3,3.5-1C635.8,114.9,636.2,113.8,636.2,112.2 M639.7,112.1
		c0,1.8-0.4,3.3-1.2,4.5c-0.8,1.2-2,2-3.6,2.5l6.5,10.8h-4.2l-5.9-10.4h-4.7v10.4h-3.6V105h8.7c2.7,0,4.7,0.6,6,1.7
		C639.1,107.9,639.7,109.7,639.7,112.1 M661,117.4c0-1.9-0.1-3.5-0.4-4.7c-0.2-1.2-0.6-2.2-1.2-3c-0.5-0.7-1.2-1.3-2.1-1.6
		c-1-0.3-2.1-0.5-3.1-0.4c-1.2,0-2.2,0.1-3.1,0.4c-0.8,0.3-1.6,0.8-2.1,1.6c-0.5,0.7-0.9,1.7-1.2,3c-0.3,1.3-0.4,2.8-0.4,4.7
		s0.1,3.5,0.4,4.7c0.2,1.2,0.6,2.2,1.2,3c0.5,0.7,1.2,1.3,2.1,1.6c0.9,0.3,1.9,0.5,3.1,0.5c1.2,0,2.2-0.2,3.1-0.5
		c0.9-0.3,1.6-0.8,2.1-1.6c0.5-0.7,0.9-1.7,1.2-3C660.9,120.6,661.1,119,661,117.4 M664.6,117.4c0,2.3-0.2,4.2-0.6,5.9
		c-0.4,1.6-1,3-1.8,4c-0.8,1-1.9,1.8-3.2,2.3c-1.3,0.5-2.9,0.7-4.7,0.7c-1.8,0-3.4-0.2-4.7-0.7c-1.3-0.5-2.4-1.2-3.2-2.3
		c-0.8-1-1.4-2.4-1.8-4c-0.4-1.6-0.6-3.6-0.6-5.9c0-2.3,0.2-4.2,0.6-5.8c0.4-1.6,1-2.9,1.8-4c0.8-1,1.9-1.8,3.2-2.3
		c1.3-0.5,2.9-0.7,4.7-0.7c1.8,0,3.4,0.2,4.7,0.7c1.3,0.5,2.4,1.2,3.2,2.3c0.8,1,1.4,2.4,1.8,4C664.4,113.2,664.6,115.1,664.6,117.4
		 M683.8,122.7c0,2.3-0.7,4.2-2.1,5.5c-1.4,1.3-3.3,2-5.8,2c-1.6,0-2.9-0.1-4.1-0.4c-1.2-0.2-2.3-0.7-3.3-1.2v-3.3
		c1,0.6,2.1,1.1,3.2,1.3c1.1,0.3,2.3,0.4,3.6,0.4c1.6,0,2.9-0.4,3.7-1.1c0.8-0.7,1.2-1.8,1.2-3.1c0-1-0.3-1.8-0.9-2.4
		c-0.6-0.6-1.4-1.1-2.2-1.4c-0.9-0.4-1.9-0.7-2.9-1c-1-0.3-2-0.7-2.9-1.2c-0.9-0.5-1.6-1.2-2.2-2c-0.6-0.8-0.9-2-0.9-3.4
		c0-1,0.2-1.9,0.5-2.7c0.3-0.9,0.8-1.6,1.5-2.2c0.7-0.6,1.5-1.1,2.5-1.5c1.2-0.4,2.4-0.6,3.7-0.5c1.2,0,2.3,0.1,3.4,0.3
		c1.1,0.2,2,0.5,2.8,0.8v3.1c-1.9-0.7-4-1.1-6-1.1c-0.9,0-1.6,0.1-2.2,0.3c-0.5,0.2-1,0.4-1.5,0.8c-0.4,0.3-0.6,0.7-0.8,1.2
		c-0.2,0.5-0.2,0.9-0.2,1.4c0,0.9,0.3,1.7,0.9,2.2c0.6,0.5,1.3,1,2.2,1.3c0.9,0.3,1.9,0.6,2.9,0.9c1,0.3,2,0.7,2.9,1.2
		c0.9,0.5,1.6,1.2,2.2,2.1C683.5,120,683.8,121.2,683.8,122.7"/>
</g>
</svg>
