<?xml version="1.0" encoding="utf-8"?>
<!-- Generator: Adobe Illustrator 19.0.0, SVG Export Plug-In . SVG Version: 6.00 Build 0)  -->
<svg version="1.1" id="Capa_1" xmlns="http://www.w3.org/2000/svg" xmlns:xlink="http://www.w3.org/1999/xlink" x="0px" y="0px"
	 viewBox="-240 364.8 88 90" style="enable-background:new -240 364.8 88 90;" xml:space="preserve">
<style type="text/css">
	.st0{fill:#6F2BAC;}
</style>
<path class="st0" d="M-197,369c-22,0-39.9,17.9-39.9,39.9c0,22,17.9,39.9,39.9,39.9s39.9-17.9,39.9-39.9
	C-157.1,386.9-175,369-197,369z M-197,445.8c-20.3,0-36.9-16.5-36.9-36.9c0-20.3,16.5-36.9,36.9-36.9s36.9,16.5,36.9,36.9
	C-160.1,429.2-176.7,445.8-197,445.8z M-184.4,416c3.4-4,5.3-9.5,5.3-15.4c0-11.2-7.3-19.1-17.8-19.1s-17.8,7.9-17.8,19.1
	c0,6,2,11.4,5.3,15.3c-5.7,3-10.1,8-12.7,14.8c-0.3,0.8,0.1,1.6,0.8,1.9c0.2,0.1,0.4,0.1,0.5,0.1c0.6,0,1.2-0.4,1.4-1
	c2.5-6.4,6.7-11,12.1-13.6c2.9,2.5,6.5,4,10.3,4c3.7,0,7.3-1.4,10.3-4c5.4,2.6,9.6,7.2,12.1,13.6c0.2,0.6,0.8,1,1.4,1
	c0.2,0,0.4,0,0.5-0.1c0.8-0.3,1.1-1.2,0.8-1.9C-174.4,424.1-178.7,419-184.4,416z M-188,415.4c-2.6,2.5-5.7,3.9-9,3.9
	c-8.2,0-14.8-8.3-14.8-18.6c0-9.6,6-16.1,14.8-16.1s14.8,6.5,14.8,16.1C-182.2,406.5-184.3,411.8-188,415.4z"/>
</svg>
