<?xml version="1.0" encoding="utf-8"?>
<!-- Generator: Adobe Illustrator 19.0.0, SVG Export Plug-In . SVG Version: 6.00 Build 0)  -->
<svg version="1.1" id="Capa_1" xmlns="http://www.w3.org/2000/svg" xmlns:xlink="http://www.w3.org/1999/xlink" x="0px" y="0px"
	 viewBox="-264 388.8 65.2 65.1" style="enable-background:new -264 388.8 65.2 65.1;" xml:space="preserve">
<style type="text/css">
	.st0{fill:#6F2BAC;}
	.st1{fill:#FFFFFF;}
</style>
<circle class="st0" cx="-231.4" cy="421.3" r="29.9"/>
<g>
	<g>
		<path class="st1" d="M-238.8,441.2L-238.8,441.2c-0.5,0-0.9-0.3-1-0.8l-3.8-18.2h-13.9c-0.6,0-1.1-0.5-1.1-1.1
			c0-0.6,0.5-1.1,1.1-1.1h14.7c0.5,0,1,0.3,1.1,0.8l3.1,15l10-33.5c0.1-0.5,0.5-0.8,1.1-0.8c0.5,0,0.9,0.4,1,0.9l3.6,21.3h17.1
			c0.6,0,1.1,0.5,1.1,1.1c0,0.6-0.5,1.1-1.1,1.1h-17.9c-0.5,0-1-0.3-1.1-0.9l-3-17.8l-10,33.1C-237.9,441-238.3,441.2-238.8,441.2z"
			/>
		<path class="st1" d="M-253.5,408.6c-0.6,0-1-0.5-1-1.1c0-0.2,0.1-0.3,0.1-0.5c3-4.8,7.4-8.5,12.7-10.7c0.5-0.2,1.2,0.1,1.4,0.6
			s-0.1,1.2-0.6,1.4c-4.8,2-8.9,5.4-11.7,9.8C-252.7,408.4-253.1,408.6-253.5,408.6z"/>
		<path class="st1" d="M-231.3,448.7c-15,0-27.2-12.2-27.2-27.2c0-3.8,0.8-7.6,2.3-11.1c0.3-0.5,0.9-0.8,1.4-0.5s0.8,0.9,0.5,1.4
			c-5.6,12.6,0.1,27.5,12.8,33.1s27.5-0.1,33.1-12.8s-0.1-27.5-12.8-33.1c-3.2-1.4-6.6-2.1-10.1-2.1c-2.3,0-4.6,0.3-6.9,1
			c-0.5,0.3-1.2,0-1.4-0.5c-0.3-0.5,0-1.2,0.5-1.4c0.1-0.1,0.2-0.1,0.3-0.1c14.4-4.2,29.5,4.2,33.7,18.6
			c4.2,14.4-4.2,29.5-18.6,33.7C-226.1,448.3-228.7,448.7-231.3,448.7L-231.3,448.7z"/>
	</g>
</g>
<g>
	<path class="st1" d="M-240.5,414.5v1.4h-1v-1.4c-1.2-0.1-2.5-0.5-3.1-1.1l0.5-1.3c0.6,0.5,1.6,0.9,2.5,1v-2.5
		c-1.4-0.3-2.9-0.8-2.9-2.6c0-1.3,1-2.5,2.9-2.7v-1.4h1v1.4c1,0.1,1.9,0.3,2.6,0.8l-0.5,1.3c-0.7-0.4-1.4-0.6-2.1-0.7v2.6
		c1.4,0.3,2.9,0.8,2.9,2.6C-237.5,413.2-238.5,414.3-240.5,414.5z M-241.6,409.1v-2.3c-0.9,0.1-1.3,0.6-1.3,1.2
		S-242.3,408.8-241.6,409.1z M-239.2,412c0-0.6-0.5-0.9-1.3-1.2v2.3C-239.6,412.9-239.2,412.5-239.2,412z"/>
</g>
</svg>
