<?xml version="1.0" encoding="utf-8"?>
<!-- Generator: Adobe Illustrator 19.0.0, SVG Export Plug-In . SVG Version: 6.00 Build 0)  -->
<svg version="1.1" id="Capa_1" xmlns="http://www.w3.org/2000/svg" xmlns:xlink="http://www.w3.org/1999/xlink" x="0px" y="0px"
	 viewBox="-240 364.8 88 90" style="enable-background:new -240 364.8 88 90;" xml:space="preserve">
<style type="text/css">
	.st0{fill:#6F2BAC;}
</style>
<path class="st0" d="M-175.6,429h-25c-0.8,0-1.5,0.7-1.5,1.5c0,0.8,0.7,1.5,1.5,1.5h25c0.8,0,1.5-0.7,1.5-1.5
	C-174,429.7-174.7,429-175.6,429z"/>
<path class="st0" d="M-175.6,399.7h-25c-0.8,0-1.5,0.7-1.5,1.5s0.7,1.5,1.5,1.5h25c0.8,0,1.5-0.7,1.5-1.5S-174.7,399.7-175.6,399.7z
	"/>
<path class="st0" d="M-175.6,414h-25c-0.8,0-1.5,0.7-1.5,1.5c0,0.8,0.7,1.5,1.5,1.5h25c0.8,0,1.5-0.7,1.5-1.5
	C-174,414.6-174.7,414-175.6,414z"/>
<path class="st0" d="M-171.9,377.7h-7.5c-0.7-2.9-3.3-5.1-6.5-5.1h-2.1h-2v-0.5c0-3.4-2.7-6.1-6.1-6.1s-6.1,2.7-6.1,6.1v0.5h-1.7
	h-2.4c-3.1,0-5.8,2.2-6.5,5.1h-7.5c-4.9,0-8.9,4-8.9,8.9V443c0,4.9,4,8.9,8.9,8.9h48.4c4.9,0,8.9-4,8.9-8.9v-56.4
	C-163,381.7-167,377.7-171.9,377.7z M-206.4,375.6h2.4h3.2c0.6,0,1.1-0.3,1.4-0.7c0.5-0.7,0.4-1.6,0.1-2.3v-0.5
	c0-1.7,1.4-3.1,3.1-3.1c1.7,0,3.1,1.4,3.1,3.1v0.5c-0.2,0.7-0.3,1.6,0.1,2.3c0.3,0.5,0.8,0.7,1.4,0.7h3.5h2.1c2,0,3.6,1.6,3.6,3.6
	c0,2-1.6,3.6-3.6,3.6h-20.5c-2,0-3.6-1.6-3.6-3.6C-210,377.3-208.3,375.6-206.4,375.6z M-166.1,443c0,3.2-2.6,5.8-5.8,5.8h-48.4
	c-3.2,0-5.8-2.6-5.8-5.8v-56.4c0-3.2,2.6-5.8,5.8-5.8h7.5c0.7,2.9,3.3,5.1,6.5,5.1h20.5c3.1,0,5.8-2.2,6.5-5.1h7.5
	c3.2,0,5.8,2.6,5.8,5.8L-166.1,443L-166.1,443L-166.1,443z"/>
<g>
	<path class="st0" d="M-214,404.7v1.1h-0.8v-1.1c-1-0.1-1.9-0.4-2.4-0.8l0.4-1c0.5,0.4,1.2,0.7,2,0.7v-2c-1.1-0.3-2.3-0.6-2.3-2
		c0-1,0.7-1.9,2.3-2v-1.1h0.8v1.1c0.7,0,1.5,0.3,2,0.6l-0.4,1c-0.5-0.3-1.1-0.5-1.6-0.5v2c1.1,0.3,2.3,0.6,2.3,2
		C-211.7,403.7-212.4,404.5-214,404.7z M-214.8,400.5v-1.8c-0.7,0.1-1,0.5-1,0.9C-215.8,400.1-215.3,400.3-214.8,400.5z
		 M-212.9,402.8c0-0.5-0.4-0.7-1-0.9v1.7C-213.2,403.5-212.9,403.2-212.9,402.8z"/>
</g>
<g>
	<path class="st0" d="M-214,419v1.1h-0.8V419c-1-0.1-1.9-0.4-2.4-0.8l0.4-1c0.5,0.4,1.2,0.7,2,0.7v-2c-1.1-0.3-2.3-0.6-2.3-2
		c0-1,0.7-1.9,2.3-2v-1.1h0.8v1.1c0.7,0,1.5,0.3,2,0.6l-0.4,1c-0.5-0.3-1.1-0.5-1.6-0.5v2c1.1,0.3,2.3,0.6,2.3,2
		C-211.7,418-212.4,418.9-214,419z M-214.8,414.8v-1.8c-0.7,0.1-1,0.5-1,0.9C-215.8,414.4-215.3,414.6-214.8,414.8z M-212.9,417.1
		c0-0.5-0.4-0.7-1-0.9v1.7C-213.2,417.8-212.9,417.5-212.9,417.1z"/>
</g>
<g>
	<path class="st0" d="M-214,434v1.1h-0.8V434c-1-0.1-1.9-0.4-2.4-0.8l0.4-1c0.5,0.4,1.2,0.7,2,0.7v-2c-1.1-0.3-2.3-0.6-2.3-2
		c0-1,0.7-1.9,2.3-2v-1.1h0.8v1.1c0.7,0,1.5,0.3,2,0.6l-0.4,1c-0.5-0.3-1.1-0.5-1.6-0.5v2c1.1,0.3,2.3,0.6,2.3,2
		C-211.7,433-212.4,433.9-214,434z M-214.8,429.8v-1.8c-0.7,0.1-1,0.5-1,0.9C-215.8,429.4-215.3,429.6-214.8,429.8z M-212.9,432.1
		c0-0.5-0.4-0.7-1-0.9v1.7C-213.2,432.8-212.9,432.5-212.9,432.1z"/>
</g>
</svg>
