<?xml version="1.0" encoding="utf-8"?>
<!-- Generator: Adobe Illustrator 19.0.0, SVG Export Plug-In . SVG Version: 6.00 Build 0)  -->
<svg version="1.1" id="Capa_1" xmlns="http://www.w3.org/2000/svg" xmlns:xlink="http://www.w3.org/1999/xlink" x="0px" y="0px"
	 viewBox="-240 364.8 88 90" style="enable-background:new -240 364.8 88 90;" xml:space="preserve">
<style type="text/css">
	.st0{fill:#6F2BAC;}
</style>
<path class="st0" d="M-167.1,393.7c0,0.9-0.7,1.7-1.7,1.7h-36.7c-0.9,0-1.7-0.7-1.7-1.7s0.7-1.7,1.7-1.7h36.7
	C-167.9,392-167.1,392.7-167.1,393.7z M-205.5,404.5h11c0.9,0,1.7-0.7,1.7-1.7c0-0.9-0.7-1.7-1.7-1.7h-11c-0.9,0-1.7,0.7-1.7,1.7
	C-207.2,403.7-206.4,404.5-205.5,404.5z M-205.5,413.6h11c0.9,0,1.7-0.7,1.7-1.7c0-0.9-0.7-1.7-1.7-1.7h-11c-0.9,0-1.7,0.7-1.7,1.7
	C-207.2,412.8-206.4,413.6-205.5,413.6z M-205.5,422.6h11c0.9,0,1.7-0.7,1.7-1.7c0-0.9-0.7-1.7-1.7-1.7h-11c-0.9,0-1.7,0.7-1.7,1.7
	C-207.2,421.9-206.4,422.6-205.5,422.6z M-168.8,428.4h-36.7c-0.9,0-1.7,0.7-1.7,1.7s0.7,1.7,1.7,1.7h36.7c0.9,0,1.7-0.7,1.7-1.7
	S-167.9,428.4-168.8,428.4z M-167.1,402.8V421c0,0.9-0.7,1.7-1.7,1.7h-16.3c-0.9,0-1.7-0.7-1.7-1.7v-18.2c0-0.9,0.7-1.7,1.7-1.7
	h16.3C-167.9,401.1-167.1,401.9-167.1,402.8L-167.1,402.8z M-170.5,404.5h-13v14.8h13V404.5z M-236,432.7v-32.7
	c0-0.9,0.7-1.7,1.7-1.7c0.9,0,1.7,0.7,1.7,1.7v32.7c0.1,4,3.5,7.1,7.4,6.9c3.8-0.1,6.8-3.2,6.9-6.9v-50.3c0-0.9,0.7-1.7,1.7-1.7h59
	c0.9,0,1.7,0.7,1.7,1.7v51.8c0,5-4,9-9,9c0,0,0,0,0,0h-60.5C-231.3,443.2-236,438.5-236,432.7z M-217.8,439.9h52.8
	c3.1,0,5.7-2.5,5.7-5.7v-50.1H-215v48.6C-215,435.4-216,438-217.8,439.9L-217.8,439.9z M-227.2,400.4v32.3c0,0.9,0.7,1.7,1.7,1.7
	s1.7-0.7,1.7-1.7v-32.3c0-0.9-0.7-1.7-1.7-1.7S-227.2,399.5-227.2,400.4z"/>
</svg>
