<?xml version="1.0" encoding="utf-8"?>
<!-- Generator: Adobe Illustrator 19.0.0, SVG Export Plug-In . SVG Version: 6.00 Build 0)  -->
<svg version="1.1" id="Capa_1" xmlns="http://www.w3.org/2000/svg" xmlns:xlink="http://www.w3.org/1999/xlink" x="0px" y="0px"
	 viewBox="-253 375.9 88 90" style="enable-background:new -253 375.9 88 90;" xml:space="preserve">
<style type="text/css">
	.st0{fill:#FFFFFF;}
</style>
<path class="st0" d="M-198,412.6c-0.7-0.6-1.7-0.4-2.2,0.2l-9.6,11.9l-6.3-5.2c-0.7-0.6-1.7-0.5-2.2,0.2c-0.6,0.7-0.5,1.7,0.2,2.2
	l7.5,6.3c0.3,0.3,0.7,0.4,1.2,0.4c0.4,0,0.8-0.2,1.1-0.6l10.7-13.1C-197.2,414.2-197.3,413.2-198,412.6z"/>
<path class="st0" d="M-209,396.2c-13.7,0-24.8,11.1-24.8,24.8c0,13.7,11.1,24.8,24.8,24.8s24.8-11.1,24.8-24.8
	S-195.3,396.2-209,396.2z M-209,442.6c-11.9,0-21.6-9.7-21.6-21.6s9.7-21.6,21.6-21.6c11.9,0,21.6,9.7,21.6,21.6
	C-187.4,432.9-197.1,442.6-209,442.6z"/>
<path class="st0" d="M-215.4,409c0.8-0.4,1.1-1.4,0.6-2.1c-0.4-0.8-1.4-1.1-2.1-0.6c-2.5,1.4-4.7,3.4-6.2,5.8
	c-0.5,0.7-0.2,1.7,0.5,2.2s1.7,0.2,2.2-0.5C-219.3,411.7-217.5,410.1-215.4,409z"/>
<path class="st0" d="M-170.2,431.3l-1.8-7.2c-0.2-0.8-0.4-2.3-0.4-3.6c0-1.3,0.1-2.6,0.3-3.4l1.7-7.2c0.1-0.6,0.2-1.2,0.2-1.7
	c0-1.5-0.4-2.9-1.1-4.2c-0.7-1.3-1.7-2.4-3-3.2l-6.4-3.8c-0.7-0.4-1.8-1.3-2.7-2.2c-0.9-0.9-1.8-2-2.2-2.7l-3.9-6.3
	c-0.8-1.3-2-2.3-3.2-2.9c-1.3-0.7-2.7-1-4.1-1c-0.6,0-1.2,0.1-1.8,0.2l-7.2,1.8c-0.8,0.2-2.3,0.4-3.6,0.4s-2.6-0.1-3.4-0.3l-7.2-1.7
	c-0.6-0.1-1.2-0.2-1.7-0.2c-1.5,0-2.9,0.4-4.2,1.1s-2.4,1.7-3.2,3l-3.8,6.4c-0.4,0.7-1.3,1.8-2.2,2.7c-0.9,0.9-2,1.8-2.7,2.2
	l-6.3,3.9c-1.3,0.8-2.3,2-2.9,3.2c-0.7,1.3-1,2.7-1,4.1c0,0.6,0.1,1.2,0.2,1.8l1.8,7.2c0.2,0.8,0.4,2.3,0.4,3.6
	c0,1.3-0.1,2.6-0.3,3.4l-1.7,7.2c-0.1,0.6-0.2,1.2-0.2,1.7c0,1.5,0.4,2.9,1.1,4.2c0.7,1.3,1.7,2.4,3,3.2l6.4,3.8
	c0.7,0.4,1.8,1.3,2.7,2.2c0.9,0.9,1.8,2,2.2,2.7l3.9,6.3c0.8,1.3,2,2.3,3.2,2.9c1.3,0.7,2.7,1,4.1,1c0.6,0,1.2-0.1,1.8-0.2l7.2-1.8
	c0.8-0.2,2.3-0.4,3.6-0.4s2.6,0.1,3.4,0.3l7.2,1.7l0,0c0.6,0.1,1.2,0.2,1.7,0.2c1.5,0,2.9-0.4,4.2-1.1s2.4-1.7,3.2-3l3.8-6.4
	c0.4-0.7,1.3-1.8,2.2-2.7c0.9-0.9,2-1.8,2.7-2.2l6.3-3.9l0,0c1.3-0.8,2.3-2,2.9-3.2c0.7-1.3,1-2.7,1-4.1
	C-170,432.5-170.1,431.9-170.2,431.3z M-174.7,437L-174.7,437l-0.6,0.4l-3.6-3.6c-0.3-0.3-0.9-0.3-1.2,0s-0.3,0.9,0,1.2l3.3,3.3
	l-3.3,2.1l-3.4-3.4c-0.3-0.3-0.9-0.3-1.2,0s-0.3,0.9,0,1.2l3.1,3.1c-1,0.7-2,1.5-3,2.4l-1.5-1.5c-0.3-0.3-0.9-0.3-1.2,0
	s-0.3,0.9,0,1.2l1.5,1.5c-0.9,1-1.7,2-2.4,3l-1.8-1.8c-0.3-0.3-0.9-0.3-1.2,0s-0.3,0.9,0,1.2l2.1,2.1l-2,3.4l-3.8-3.8
	c-0.3-0.3-0.9-0.3-1.2,0s-0.3,0.9,0,1.2l4.1,4.1l-0.5,0.9c-0.2,0.4-0.7,0.8-1.3,1.1c-0.4,0.2-0.8,0.3-1.2,0.4l-3.9-3.9
	c-0.3-0.3-0.9-0.3-1.2,0s-0.3,0.9,0,1.2l2.3,2.3l-6.2-1.4c-1.5-0.3-3.1-0.5-4.8-0.5c-1.8,0-3.6,0.2-5.2,0.5l-7.7,1.9
	c-0.2,0-0.4,0.1-0.6,0.1c-0.5,0-1.2-0.2-1.8-0.5s-1-0.7-1.3-1.1l-4.2-6.7c-0.8-1.3-2-2.7-3.2-3.9c-1.3-1.2-2.6-2.3-3.9-3.2l-6.8-4.1
	c-0.4-0.2-0.8-0.7-1.1-1.3c-0.3-0.6-0.5-1.3-0.5-1.8c0-0.2,0-0.4,0.1-0.6l1.8-7.7c0.3-1.5,0.5-3.2,0.5-4.8c0-1.8-0.2-3.6-0.5-5.2
	l-1.9-7.7c0-0.2-0.1-0.4-0.1-0.6c0-0.5,0.2-1.2,0.5-1.8c0.3-0.6,0.7-1,1.1-1.3l6.7-4.2c1.3-0.8,2.7-2,3.9-3.2
	c1.2-1.3,2.3-2.6,3.2-3.9l4.1-6.8c0.2-0.4,0.7-0.8,1.3-1.1c0.6-0.3,1.3-0.5,1.8-0.5c0.2,0,0.4,0,0.6,0.1l7.7,1.8
	c1.5,0.3,3.2,0.5,4.8,0.5c1.8,0,3.6-0.2,5.2-0.5l7.7-1.9c0.2,0,0.4-0.1,0.6-0.1c0.5,0,1.2,0.2,1.8,0.5s1,0.7,1.3,1.1l4.2,6.7
	c0.8,1.3,2,2.7,3.2,3.9c1.3,1.2,2.6,2.3,3.9,3.2l6.8,4.1c0.4,0.2,0.8,0.7,1.1,1.3c0.3,0.6,0.5,1.3,0.5,1.8c0,0.2,0,0.4-0.1,0.6
	l-1.8,7.7c-0.3,1.5-0.5,3.1-0.5,4.8c0,1.8,0.2,3.6,0.5,5.2l1.3,5.4l-2.5-2.5c-0.3-0.3-0.9-0.3-1.2,0s-0.3,0.9,0,1.2l4.3,4.3
	c0,0.5-0.2,1.1-0.5,1.7C-173.9,436.3-174.3,436.8-174.7,437z"/>
</svg>
