<?xml version="1.0" encoding="utf-8"?>
<!-- Generator: Adobe Illustrator 19.0.0, SVG Export Plug-In . SVG Version: 6.00 Build 0)  -->
<svg version="1.1" id="Capa_1" xmlns="http://www.w3.org/2000/svg" xmlns:xlink="http://www.w3.org/1999/xlink" x="0px" y="0px"
	 viewBox="-253 375.9 88 90" style="enable-background:new -253 375.9 88 90;" xml:space="preserve">
<style type="text/css">
	.st0{fill:#FFFFFF;}
</style>
<path class="st0" d="M-188.6,404.1c0.1,2.8,0.1,5.8,0,8.8c0.6-0.2,1.2-0.2,1.9-0.2c0.6,0,1.1,0,1.6,0.1c0.1-3,0-6,0-8.8
	c0-1.9-0.1-3.7-0.1-5.4c0-1-0.8-1.8-1.8-1.8c-10.7,0-18.8-3.1-25.6-9.7c-0.7-0.7-1.8-0.7-2.4,0c-6.8,6.6-14.9,9.7-25.6,9.7
	c-1,0-1.8,0.8-1.8,1.7l0,0c0,1.7,0,3.5-0.1,5.4c-0.1,2.6-0.1,5.4-0.1,8.3c0.7-0.4,1.6-0.6,2.6-0.6c0.3,0,0.6,0,0.9,0.1
	c0-2.6,0-5.2,0.1-7.7c0-1.3,0-2.5,0.1-3.8c10.2-0.3,18.2-3.4,25.1-9.5c6.8,6.1,14.9,9.2,25.1,9.5
	C-188.7,401.5-188.7,402.8-188.6,404.1z"/>
<path class="st0" d="M-191.5,433.1c-0.3,0-0.5,0-0.8-0.1c-3.4,7.7-9.7,14.4-21.5,18.7c-12.6-4.5-18.9-11.8-22.1-20.1
	c-0.7,1-1.7,1.8-2.7,2.5c3.7,8.7,10.7,16.4,24.2,21.1c0.4,0.1,0.8,0.1,1.1,0c14.6-5.1,21.7-13.7,25.1-23.2
	C-189,432.7-190.1,433.1-191.5,433.1z"/>
<path class="st0" d="M-214.1,407.1c-0.5-0.5-1.3-0.5-1.8,0l-12.4,11.2c-0.6,0.5-0.6,1.3-0.1,1.9s1.3,0.6,1.9,0.1l0,0l1-0.9v11.9
	c0,0.7,0.6,1.3,1.3,1.3h18.4c0.7,0,1.3-0.6,1.3-1.3v-11.9l1,0.9c0.5,0.5,1.4,0.5,1.9-0.1c0.5-0.5,0.5-1.4-0.1-1.9l0,0L-214.1,407.1z
	 M-213.2,430h-3.6v-5h3.6V430z M-207.2,430h-3.3v-6.4c0-0.7-0.6-1.3-1.3-1.3h-6.3c-0.7,0-1.3,0.6-1.3,1.3v6.4h-3.4v-13l7.8-7.1
	l7.8,7.1V430z"/>
<g>
	<path class="st0" d="M-198.5,429.7h0.4c0.6,1.6,2.2,2.8,4,2.8s3.4-1.1,4-2.8h11.3c0.6,1.6,2.2,2.8,4,2.8s3.4-1.1,4-2.8h1.1
		c1.2,0,2.1-1,2.1-2.1v-3.2c0-1.6-1.2-3-2.8-3.3l-5.4-0.9c-0.2,0-0.4-0.1-0.5-0.3l-3.6-3.8c-0.9-0.9-2.1-1.4-3.3-1.4h-9.1
		c-1.2,0-2.3,0.4-3.1,1.2l-3.3,3c-1.3,1.2-2,2.8-2,4.6v4.2C-200.6,428.7-199.6,429.7-198.5,429.7z M-194,429.8
		c-0.9,0-1.7-0.8-1.7-1.7s0.8-1.7,1.7-1.7s1.7,0.8,1.7,1.7C-192.3,429.1-193.1,429.8-194,429.8z M-174.8,429.8
		c-0.9,0-1.7-0.8-1.7-1.7s0.8-1.7,1.7-1.7s1.7,0.8,1.7,1.7C-173.1,429.1-173.8,429.8-174.8,429.8z M-170.1,424.4v2.7h-0.5
		c-0.5-1.8-2.2-3.2-4.1-3.2c-2,0-3.7,1.4-4.1,3.2h-11c-0.5-1.8-2.2-3.2-4.1-3.2c-1.8,0-3.3,1.1-4,2.7v-3.1c0-0.3,0-0.5,0.1-0.8h21.6
		c0.1,0,0.1,0,0.2,0l5.4,0.9C-170.4,423.7-170.1,424-170.1,424.4z M-190.5,420l1.3-2.8h2.2l0.9,2.8H-190.5z M-181.6,417.8l2.1,2.2
		h-3.9l-0.9-2.8h1.3C-182.5,417.2-182,417.5-181.6,417.8z M-193.5,417.7c0.4-0.3,0.8-0.5,1.3-0.5h0.1l-1.3,2.8h-2.6L-193.5,417.7z"
		/>
</g>
<g>
	<path class="st0" d="M-241.6,434c-0.3,0-0.7-0.1-1-0.4c-0.8-0.7-1.5-1.4-2.3-2c-0.7-0.6-1.3-1.2-2-1.8c-0.2-0.2-0.4-0.3-0.6-0.5
		c-1.3-1.1-2.7-2.3-3.7-3.8c-1.3-1.8-2.3-4.9-1.5-7.7c0.8-2.8,3-4.5,5.9-4.7c2.5-0.2,4,0.9,5.1,2c1.1-1.1,2.5-2,4.7-2h0.1
		c2.3,0,3.8,1,4.7,1.9c1.5,1.6,2.1,3.8,1.7,6.6c-0.4,2.6-1.6,4.1-2.8,5.3c-1.3,1.4-2.7,2.6-4,3.7c-1.2,1-2.3,1.9-3.2,2.9
		C-240.8,433.8-241.2,434-241.6,434z M-246.3,416c-0.1,0-0.2,0-0.3,0c-2.3,0.1-3,1.7-3.3,2.6c-0.5,1.8,0.2,4,1,5.2s2.1,2.2,3.3,3.2
		c0.2,0.2,0.4,0.4,0.6,0.5c0.7,0.6,1.4,1.2,2.1,1.9c0.4,0.4,0.8,0.7,1.2,1.1c0.8-0.8,1.7-1.5,2.5-2.2c1.3-1.1,2.6-2.2,3.8-3.4
		c1.1-1.2,1.8-2.2,2-3.8c0.2-1.3,0.2-3-0.9-4.1c-0.7-0.7-1.6-1-2.6-1h-0.1c-1.6,0-2.4,0.7-3.5,2.2c-0.3,0.3-0.7,0.5-1.1,0.5
		c-0.4,0-0.8-0.2-1.1-0.5c-0.1-0.1-0.2-0.2-0.3-0.3C-244.2,416.7-244.9,416-246.3,416z"/>
</g>
</svg>
