<?xml version="1.0" encoding="utf-8"?>
<!-- Generator: Adobe Illustrator 19.0.0, SVG Export Plug-In . SVG Version: 6.00 Build 0)  -->
<svg version="1.1" id="Capa_1" xmlns="http://www.w3.org/2000/svg" xmlns:xlink="http://www.w3.org/1999/xlink" x="0px" y="0px"
	 viewBox="-253 375.9 88 90" style="enable-background:new -253 375.9 88 90;" xml:space="preserve">
<style type="text/css">
	.st0{fill:#FFFFFF;}
</style>
<path class="st0" d="M-198.5,397h-21.1c-5.1,0-9.2,4.1-9.2,9.2l0,0v48.3c0,5.1,4.1,9.2,9.2,9.2h21.1c5.1,0,9.2-4.1,9.2-9.2v-48.3
	C-189.2,401.2-193.4,397-198.5,397z M-225.6,407.8h33.3v38.5h-33.3V407.8z M-219.9,399.7h21.8c3.1,0,5.6,2.4,5.7,5.5h-33.3
	C-225.5,402.1-222.9,399.7-219.9,399.7L-219.9,399.7z M-198.1,461.2h-21.8c-3.2,0-5.7-2.6-5.7-5.7V449h33.3v6.5
	C-192.4,458.6-194.9,461.2-198.1,461.2z"/>
<path class="st0" d="M-204.1,453.1h-9.8c-1.1,0-1.9,0.9-1.9,1.9s0.9,1.9,1.9,1.9h9.8c1.1,0,1.9-0.9,1.9-1.9S-203,453.1-204.1,453.1z
	"/>
<path class="st0" d="M-217.5,389.8c-0.7,0.7-0.7,1.7,0,2.4c0.7,0.7,1.7,0.7,2.4,0l0,0c3.4-3.4,8.9-3.4,12.3,0c0.7,0.7,1.7,0.7,2.4,0
	s0.7-1.7,0-2.4C-205.2,385.1-212.8,385.1-217.5,389.8z"/>
<path class="st0" d="M-196.5,386.7c0.9,0,1.7-0.8,1.7-1.7c0-0.4-0.2-0.9-0.5-1.2c-7.6-7.5-19.8-7.5-27.4,0c-0.7,0.7-0.7,1.7,0,2.4
	c0.7,0.7,1.7,0.7,2.4,0c6.3-6.2,16.4-6.2,22.6,0C-197.4,386.5-196.9,386.7-196.5,386.7z"/>
</svg>
