<?xml version="1.0" encoding="utf-8"?>
<!-- Generator: Adobe Illustrator 19.0.0, SVG Export Plug-In . SVG Version: 6.00 Build 0)  -->
<svg version="1.1" id="Capa_1" xmlns="http://www.w3.org/2000/svg" xmlns:xlink="http://www.w3.org/1999/xlink" x="0px" y="0px"
	 viewBox="-253 375.9 88 90" style="enable-background:new -253 375.9 88 90;" xml:space="preserve">
<style type="text/css">
	.st0{fill:#FFFFFF;}
</style>
<path class="st0" d="M-179.1,403.6c0,0.9-0.7,1.7-1.7,1.7h-36.7c-0.9,0-1.7-0.7-1.7-1.7s0.7-1.7,1.7-1.7h36.7
	C-179.9,401.9-179.1,402.6-179.1,403.6z M-217.5,414.4h11c0.9,0,1.7-0.7,1.7-1.7c0-0.9-0.7-1.7-1.7-1.7h-11c-0.9,0-1.7,0.7-1.7,1.7
	C-219.2,413.6-218.4,414.4-217.5,414.4z M-217.5,423.5h11c0.9,0,1.7-0.7,1.7-1.7c0-0.9-0.7-1.7-1.7-1.7h-11c-0.9,0-1.7,0.7-1.7,1.7
	C-219.2,422.7-218.4,423.5-217.5,423.5z M-217.5,432.5h11c0.9,0,1.7-0.7,1.7-1.7c0-0.9-0.7-1.7-1.7-1.7h-11c-0.9,0-1.7,0.7-1.7,1.7
	S-218.4,432.5-217.5,432.5z M-180.8,438.3h-36.7c-0.9,0-1.7,0.7-1.7,1.7s0.7,1.7,1.7,1.7h36.7c0.9,0,1.7-0.7,1.7-1.7
	S-179.9,438.3-180.8,438.3z M-179.1,412.7v18.2c0,0.9-0.7,1.7-1.7,1.7h-16.3c-0.9,0-1.7-0.7-1.7-1.7v-18.2c0-0.9,0.7-1.7,1.7-1.7
	h16.3C-179.9,411-179.1,411.8-179.1,412.7L-179.1,412.7z M-182.5,414.4h-13v14.8h13V414.4z M-248,442.6v-32.7c0-0.9,0.7-1.7,1.7-1.7
	c0.9,0,1.7,0.7,1.7,1.7v32.7c0.1,4,3.5,7.1,7.4,6.9c3.8-0.1,6.8-3.2,6.9-6.9v-50.3c0-0.9,0.7-1.7,1.7-1.7h59c0.9,0,1.7,0.7,1.7,1.7
	v51.8c0,5-4,9-9,9l0,0h-60.5C-243.3,453.1-248,448.4-248,442.6z M-229.8,449.8h52.8c3.1,0,5.7-2.5,5.7-5.7V394H-227v48.6
	C-227,445.3-228,447.9-229.8,449.8L-229.8,449.8z M-239.2,410.3v32.3c0,0.9,0.7,1.7,1.7,1.7s1.7-0.7,1.7-1.7v-32.3
	c0-0.9-0.7-1.7-1.7-1.7S-239.2,409.4-239.2,410.3z"/>
</svg>
