<?xml version="1.0" encoding="utf-8"?>
<!-- Generator: Adobe Illustrator 19.0.0, SVG Export Plug-In . SVG Version: 6.00 Build 0)  -->
<svg version="1.1" id="Capa_1" xmlns="http://www.w3.org/2000/svg" xmlns:xlink="http://www.w3.org/1999/xlink" x="0px" y="0px"
	 viewBox="-253 375.9 88 90" style="enable-background:new -253 375.9 88 90;" xml:space="preserve">
<style type="text/css">
	.st0{fill:#FFFFFF;}
</style>
<g transform="translate(0,-1020.3622)">
	<path class="st0" d="M-228.6,1409.6c-4.4,0-7.9,3.6-7.9,7.9v29.1c0,4.4,3.6,7.9,7.9,7.9h4.3l7.9,9.9c0.5,0.6,1.3,0.7,1.9,0.2
		c0.1-0.1,0.1-0.1,0.2-0.2l7.9-9.9h9.8c-0.1,0.9-0.2,1.7-0.2,2.6c0,8.7,7.1,15.9,15.9,15.9c8.7,0,15.9-7.1,15.9-15.9
		c0-5.9-3.2-11-7.9-13.7v-25.9c0-4.4-3.6-7.9-7.9-7.9H-228.6L-228.6,1409.6z M-228,1412.9h46.3c2.9,0,5.1,2.3,5.1,5.1v24
		c-1.6-0.6-3.3-0.9-5.1-0.9c-6.7,0-12.4,4.3-14.5,10.3h-10.9c-0.4,0-0.8,0.2-1,0.5l-7.1,8.9l-7.1-8.9c-0.2-0.3-0.6-0.5-1-0.5h-4.8
		c-2.9,0-5.1-2.3-5.1-5.1V1418C-233.1,1415.2-230.9,1412.9-228,1412.9z M-224.8,1422.8c-0.7,0-1.3,0.7-1.3,1.4
		c0,0.7,0.7,1.3,1.4,1.3h17.3c0.7,0,1.3-0.6,1.3-1.3s-0.6-1.3-1.3-1.3l0,0L-224.8,1422.8C-224.7,1422.8-224.7,1422.8-224.8,1422.8z
		 M-224.8,1428.1c-0.7,0-1.3,0.7-1.3,1.4c0,0.7,0.7,1.3,1.4,1.3h34.6c0.7,0,1.3-0.6,1.3-1.3s-0.6-1.3-1.3-1.3l0,0L-224.8,1428.1
		C-224.7,1428.1-224.7,1428.1-224.8,1428.1z M-224.8,1433.4c-0.7,0-1.3,0.7-1.3,1.4c0,0.7,0.7,1.3,1.4,1.3h27.2
		c0.7,0,1.3-0.6,1.3-1.3s-0.6-1.3-1.3-1.3l0,0L-224.8,1433.4C-224.7,1433.4-224.7,1433.4-224.8,1433.4z M-224.8,1438.7
		c-0.7,0-1.3,0.7-1.3,1.4c0,0.7,0.7,1.3,1.4,1.3h23.2c0.7,0,1.3-0.6,1.3-1.3s-0.6-1.3-1.3-1.3l0,0L-224.8,1438.7
		C-224.7,1438.7-224.7,1438.7-224.8,1438.7z M-195.7,1438.7c-0.7,0-1.3,0.7-1.3,1.4c0,0.7,0.7,1.3,1.4,1.3h4.3
		c0.7,0,1.3-0.6,1.3-1.3s-0.6-1.3-1.3-1.3l0,0L-195.7,1438.7C-195.6,1438.7-195.7,1438.7-195.7,1438.7z M-181.1,1444.4
		c7,0,12.7,5.7,12.7,12.7s-5.7,12.7-12.7,12.7s-12.7-5.7-12.7-12.7S-188.1,1444.4-181.1,1444.4z M-181.1,1446.6
		c-1.8,0-3.3,0.6-4.5,1.9c-1.2,1.2-1.8,2.7-1.8,4.5c0,0.3,0.1,0.5,0.3,0.8c0.2,0.2,0.5,0.3,0.8,0.3s0.5-0.1,0.7-0.3
		c0.2-0.2,0.3-0.5,0.3-0.8c0-1.2,0.4-2.2,1.2-3s1.8-1.2,3-1.2s2.2,0.4,3,1.2c0.8,0.8,1.2,1.8,1.2,3s-0.4,2.2-1.2,3l-2.2,2
		c-1.2,1.2-1.9,2.7-1.9,4.5c0,0.3,0.1,0.5,0.3,0.8c0.2,0.2,0.5,0.3,0.8,0.3s0.5-0.1,0.7-0.3c0.2-0.2,0.3-0.5,0.3-0.8
		c0-1.2,0.4-2.2,1.2-3l2.2-2c1.2-1.2,1.9-2.7,1.9-4.5s-0.6-3.2-1.9-4.5C-177.8,1447.2-179.3,1446.6-181.1,1446.6z M-181.1,1464.6
		c-0.4,0-0.8,0.2-1.1,0.5s-0.5,0.7-0.5,1.1s0.2,0.8,0.5,1.1c0.3,0.3,0.7,0.5,1.1,0.5s0.8-0.2,1.1-0.5s0.5-0.7,0.5-1.1
		s-0.2-0.8-0.5-1.1C-180.3,1464.7-180.6,1464.6-181.1,1464.6z"/>
</g>
</svg>
