<?xml version="1.0" encoding="utf-8"?>
<!-- Generator: Adobe Illustrator 19.0.0, SVG Export Plug-In . SVG Version: 6.00 Build 0)  -->
<svg version="1.1" id="Capa_1" xmlns="http://www.w3.org/2000/svg" xmlns:xlink="http://www.w3.org/1999/xlink" x="0px" y="0px"
	 viewBox="-240 364.8 88 90" style="enable-background:new -240 364.8 88 90;" xml:space="preserve">
<style type="text/css">
	.st0{fill:#6F2BAC;}
</style>
<path class="st0" d="M-185.3,402.4c-0.7-0.6-1.7-0.4-2.2,0.2l-9.6,11.9l-6.3-5.2c-0.7-0.6-1.7-0.5-2.2,0.2c-0.6,0.7-0.5,1.7,0.2,2.2
	l7.5,6.3c0.3,0.3,0.7,0.4,1.2,0.4c0.4,0,0.8-0.2,1.1-0.6l10.7-13.1C-184.5,404-184.6,403-185.3,402.4z"/>
<path class="st0" d="M-196.3,386c-13.7,0-24.8,11.1-24.8,24.8c0,13.7,11.1,24.8,24.8,24.8c13.7,0,24.8-11.1,24.8-24.8
	C-171.5,397.1-182.6,386-196.3,386z M-196.3,432.4c-11.9,0-21.6-9.7-21.6-21.6c0-11.9,9.7-21.6,21.6-21.6c11.9,0,21.6,9.7,21.6,21.6
	C-174.7,422.7-184.4,432.4-196.3,432.4z"/>
<path class="st0" d="M-202.7,398.8c0.8-0.4,1.1-1.4,0.6-2.1c-0.4-0.8-1.4-1.1-2.1-0.6c-2.5,1.4-4.7,3.4-6.2,5.8
	c-0.5,0.7-0.2,1.7,0.5,2.2c0.7,0.5,1.7,0.2,2.2-0.5C-206.6,401.5-204.8,399.9-202.7,398.8z"/>
<path class="st0" d="M-157.5,421.1l-1.8-7.2c-0.2-0.8-0.4-2.3-0.4-3.6c0-1.3,0.1-2.6,0.3-3.4l1.7-7.2c0.1-0.6,0.2-1.2,0.2-1.7
	c0-1.5-0.4-2.9-1.1-4.2c-0.7-1.3-1.7-2.4-3-3.2l-6.4-3.8c-0.7-0.4-1.8-1.3-2.7-2.2c-0.9-0.9-1.8-2-2.2-2.7l-3.9-6.3
	c-0.8-1.3-2-2.3-3.2-2.9c-1.3-0.7-2.7-1-4.1-1c-0.6,0-1.2,0.1-1.8,0.2l-7.2,1.8c-0.8,0.2-2.3,0.4-3.6,0.4c-1.3,0-2.6-0.1-3.4-0.3
	l-7.2-1.7c-0.6-0.1-1.2-0.2-1.7-0.2c-1.5,0-2.9,0.4-4.2,1.1c-1.3,0.7-2.4,1.7-3.2,3l-3.8,6.4c-0.4,0.7-1.3,1.8-2.2,2.7
	c-0.9,0.9-2,1.8-2.7,2.2l-6.3,3.9c-1.3,0.8-2.3,2-2.9,3.2c-0.7,1.3-1,2.7-1,4.1c0,0.6,0.1,1.2,0.2,1.8l1.8,7.2
	c0.2,0.8,0.4,2.3,0.4,3.6c0,1.3-0.1,2.6-0.3,3.4l-1.7,7.2c-0.1,0.6-0.2,1.2-0.2,1.7c0,1.5,0.4,2.9,1.1,4.2c0.7,1.3,1.7,2.4,3,3.2
	l6.4,3.8c0.7,0.4,1.8,1.3,2.7,2.2c0.9,0.9,1.8,2,2.2,2.7l3.9,6.3c0.8,1.3,2,2.3,3.2,2.9c1.3,0.7,2.7,1,4.1,1c0.6,0,1.2-0.1,1.8-0.2
	l7.2-1.8c0.8-0.2,2.3-0.4,3.6-0.4c1.3,0,2.6,0.1,3.4,0.3l7.2,1.7l0,0c0.6,0.1,1.2,0.2,1.7,0.2c1.5,0,2.9-0.4,4.2-1.1
	c1.3-0.7,2.4-1.7,3.2-3l3.8-6.4c0.4-0.7,1.3-1.8,2.2-2.7c0.9-0.9,2-1.8,2.7-2.2l6.3-3.9l0,0c1.3-0.8,2.3-2,2.9-3.2
	c0.7-1.3,1-2.7,1-4.1C-157.3,422.3-157.4,421.7-157.5,421.1z M-162,426.8L-162,426.8l-0.6,0.4l-3.6-3.6c-0.3-0.3-0.9-0.3-1.2,0
	c-0.3,0.3-0.3,0.9,0,1.2l3.3,3.3l-3.3,2.1l-3.4-3.4c-0.3-0.3-0.9-0.3-1.2,0c-0.3,0.3-0.3,0.9,0,1.2l3.1,3.1c-1,0.7-2,1.5-3,2.4
	l-1.5-1.5c-0.3-0.3-0.9-0.3-1.2,0c-0.3,0.3-0.3,0.9,0,1.2l1.5,1.5c-0.9,1-1.7,2-2.4,3l-1.8-1.8c-0.3-0.3-0.9-0.3-1.2,0
	c-0.3,0.3-0.3,0.9,0,1.2l2.1,2.1l-2,3.4l-3.8-3.8c-0.3-0.3-0.9-0.3-1.2,0c-0.3,0.3-0.3,0.9,0,1.2l4.1,4.1l-0.5,0.9
	c-0.2,0.4-0.7,0.8-1.3,1.1c-0.4,0.2-0.8,0.3-1.2,0.4l-3.9-3.9c-0.3-0.3-0.9-0.3-1.2,0c-0.3,0.3-0.3,0.9,0,1.2l2.3,2.3l-6.2-1.4
	c-1.5-0.3-3.1-0.5-4.8-0.5c-1.8,0-3.6,0.2-5.2,0.5l-7.7,1.9c-0.2,0-0.4,0.1-0.6,0.1c-0.5,0-1.2-0.2-1.8-0.5c-0.6-0.3-1-0.7-1.3-1.1
	l-4.2-6.7c-0.8-1.3-2-2.7-3.2-3.9c-1.3-1.2-2.6-2.3-3.9-3.2l-6.8-4.1c-0.4-0.2-0.8-0.7-1.1-1.3c-0.3-0.6-0.5-1.3-0.5-1.8
	c0-0.2,0-0.4,0.1-0.6l1.8-7.7c0.3-1.5,0.5-3.2,0.5-4.8c0-1.8-0.2-3.6-0.5-5.2l-1.9-7.7c0-0.2-0.1-0.4-0.1-0.6c0-0.5,0.2-1.2,0.5-1.8
	c0.3-0.6,0.7-1,1.1-1.3l6.7-4.2c1.3-0.8,2.7-2,3.9-3.2c1.2-1.3,2.3-2.6,3.2-3.9l4.1-6.8c0.2-0.4,0.7-0.8,1.3-1.1
	c0.6-0.3,1.3-0.5,1.8-0.5c0.2,0,0.4,0,0.6,0.1l7.7,1.8c1.5,0.3,3.2,0.5,4.8,0.5c1.8,0,3.6-0.2,5.2-0.5l7.7-1.9
	c0.2,0,0.4-0.1,0.6-0.1c0.5,0,1.2,0.2,1.8,0.5c0.6,0.3,1,0.7,1.3,1.1l4.2,6.7c0.8,1.3,2,2.7,3.2,3.9c1.3,1.2,2.6,2.3,3.9,3.2
	l6.8,4.1c0.4,0.2,0.8,0.7,1.1,1.3c0.3,0.6,0.5,1.3,0.5,1.8c0,0.2,0,0.4-0.1,0.6l-1.8,7.7c-0.3,1.5-0.5,3.1-0.5,4.8
	c0,1.8,0.2,3.6,0.5,5.2l1.3,5.4l-2.5-2.5c-0.3-0.3-0.9-0.3-1.2,0c-0.3,0.3-0.3,0.9,0,1.2l4.3,4.3c0,0.5-0.2,1.1-0.5,1.7
	C-161.2,426.1-161.6,426.6-162,426.8z"/>
</svg>
