<?xml version="1.0" encoding="utf-8"?>
<!-- Generator: Adobe Illustrator 19.0.0, SVG Export Plug-In . SVG Version: 6.00 Build 0)  -->
<svg version="1.1" id="Capa_1" xmlns="http://www.w3.org/2000/svg" xmlns:xlink="http://www.w3.org/1999/xlink" x="0px" y="0px"
	 viewBox="-240 364.8 88 90" style="enable-background:new -240 364.8 88 90;" xml:space="preserve">
<style type="text/css">
	.st0{fill:#6F2BAC;}
</style>
<path class="st0" d="M-186.4,386.6h-21.1c-5.1,0-9.2,4.1-9.2,9.2l0,0v48.3c0,5.1,4.1,9.2,9.2,9.2h21.1c5.1,0,9.2-4.1,9.2-9.2v-48.3
	C-177.1,390.8-181.3,386.6-186.4,386.6z M-213.5,397.4h33.3v38.5h-33.3V397.4z M-207.8,389.3h21.8c3.1,0,5.6,2.4,5.7,5.5h-33.3
	C-213.4,391.7-210.8,389.3-207.8,389.3L-207.8,389.3z M-186,450.8h-21.8c-3.2,0-5.7-2.6-5.7-5.7v-6.5h33.3v6.5
	C-180.3,448.2-182.8,450.8-186,450.8z"/>
<path class="st0" d="M-192,442.7h-9.8c-1.1,0-1.9,0.9-1.9,1.9s0.9,1.9,1.9,1.9h9.8c1.1,0,1.9-0.9,1.9-1.9S-190.9,442.7-192,442.7z"
	/>
<path class="st0" d="M-205.4,379.4c-0.7,0.7-0.7,1.7,0,2.4c0.7,0.7,1.7,0.7,2.4,0l0,0c3.4-3.4,8.9-3.4,12.3,0c0.7,0.7,1.7,0.7,2.4,0
	c0.7-0.7,0.7-1.7,0-2.4C-193.1,374.7-200.7,374.7-205.4,379.4z"/>
<path class="st0" d="M-184.4,376.3c0.9,0,1.7-0.8,1.7-1.7c0-0.4-0.2-0.9-0.5-1.2c-7.6-7.5-19.8-7.5-27.4,0c-0.7,0.7-0.7,1.7,0,2.4
	c0.7,0.7,1.7,0.7,2.4,0c6.3-6.2,16.4-6.2,22.6,0C-185.3,376.1-184.8,376.3-184.4,376.3z"/>
</svg>
