<?xml version="1.0" encoding="utf-8"?>
<!-- Generator: Adobe Illustrator 19.0.0, SVG Export Plug-In . SVG Version: 6.00 Build 0)  -->
<svg version="1.1" id="Capa_1" xmlns="http://www.w3.org/2000/svg" xmlns:xlink="http://www.w3.org/1999/xlink" x="0px" y="0px"
	 viewBox="-240 364.8 88 90" style="enable-background:new -240 364.8 88 90;" xml:space="preserve">
<style type="text/css">
	.st0{fill:#6F2BAC;}
</style>
<g transform="translate(0,-1020.3622)">
	<path class="st0" d="M-227.5,1400.2c-4.4,0-7.9,3.6-7.9,7.9v29.1c0,4.4,3.6,7.9,7.9,7.9h4.3l7.9,9.9c0.5,0.6,1.3,0.7,1.9,0.2
		c0.1-0.1,0.1-0.1,0.2-0.2l7.9-9.9h9.8c-0.1,0.9-0.2,1.7-0.2,2.6c0,8.7,7.1,15.9,15.9,15.9c8.7,0,15.9-7.1,15.9-15.9
		c0-5.9-3.2-11-7.9-13.7v-25.9c0-4.4-3.6-7.9-7.9-7.9H-227.5L-227.5,1400.2z M-226.9,1403.5h46.3c2.9,0,5.1,2.3,5.1,5.1v24
		c-1.6-0.6-3.3-0.9-5.1-0.9c-6.7,0-12.4,4.3-14.5,10.3H-206c-0.4,0-0.8,0.2-1,0.5l-7.1,8.9l-7.1-8.9c-0.2-0.3-0.6-0.5-1-0.5h-4.8
		c-2.9,0-5.1-2.3-5.1-5.1v-28.3C-232,1405.8-229.8,1403.5-226.9,1403.5z M-223.7,1413.4c-0.7,0-1.3,0.7-1.3,1.4
		c0,0.7,0.7,1.3,1.4,1.3h17.3c0.7,0,1.3-0.6,1.3-1.3s-0.6-1.3-1.3-1.3c0,0,0,0,0,0h-17.3C-223.6,1413.4-223.6,1413.4-223.7,1413.4z
		 M-223.7,1418.7c-0.7,0-1.3,0.7-1.3,1.4c0,0.7,0.7,1.3,1.4,1.3h34.6c0.7,0,1.3-0.6,1.3-1.3s-0.6-1.3-1.3-1.3c0,0,0,0,0,0h-34.6
		C-223.6,1418.7-223.6,1418.7-223.7,1418.7z M-223.7,1424c-0.7,0-1.3,0.7-1.3,1.4c0,0.7,0.7,1.3,1.4,1.3h27.2c0.7,0,1.3-0.6,1.3-1.3
		s-0.6-1.3-1.3-1.3c0,0,0,0,0,0h-27.2C-223.6,1424-223.6,1424-223.7,1424z M-223.7,1429.3c-0.7,0-1.3,0.7-1.3,1.4
		c0,0.7,0.7,1.3,1.4,1.3h23.2c0.7,0,1.3-0.6,1.3-1.3s-0.6-1.3-1.3-1.3c0,0,0,0,0,0h-23.2C-223.6,1429.3-223.6,1429.3-223.7,1429.3z
		 M-194.6,1429.3c-0.7,0-1.3,0.7-1.3,1.4c0,0.7,0.7,1.3,1.4,1.3h4.3c0.7,0,1.3-0.6,1.3-1.3s-0.6-1.3-1.3-1.3c0,0,0,0,0,0h-4.3
		C-194.5,1429.3-194.6,1429.3-194.6,1429.3z M-180,1435c7,0,12.7,5.7,12.7,12.7c0,7-5.7,12.7-12.7,12.7c-7,0-12.7-5.7-12.7-12.7
		C-192.7,1440.7-187,1435-180,1435z M-180,1437.2c-1.8,0-3.3,0.6-4.5,1.9c-1.2,1.2-1.8,2.7-1.8,4.5c0,0.3,0.1,0.5,0.3,0.8
		c0.2,0.2,0.5,0.3,0.8,0.3c0.3,0,0.5-0.1,0.7-0.3c0.2-0.2,0.3-0.5,0.3-0.8c0-1.2,0.4-2.2,1.2-3c0.8-0.8,1.8-1.2,3-1.2
		c1.2,0,2.2,0.4,3,1.2c0.8,0.8,1.2,1.8,1.2,3s-0.4,2.2-1.2,3l-2.2,2c-1.2,1.2-1.9,2.7-1.9,4.5c0,0.3,0.1,0.5,0.3,0.8
		c0.2,0.2,0.5,0.3,0.8,0.3c0.3,0,0.5-0.1,0.7-0.3c0.2-0.2,0.3-0.5,0.3-0.8c0-1.2,0.4-2.2,1.2-3l2.2-2c1.2-1.2,1.9-2.7,1.9-4.5
		c0-1.8-0.6-3.2-1.9-4.5C-176.7,1437.8-178.2,1437.2-180,1437.2z M-180,1455.2c-0.4,0-0.8,0.2-1.1,0.5c-0.3,0.3-0.5,0.7-0.5,1.1
		c0,0.4,0.2,0.8,0.5,1.1c0.3,0.3,0.7,0.5,1.1,0.5s0.8-0.2,1.1-0.5c0.3-0.3,0.5-0.7,0.5-1.1c0-0.4-0.2-0.8-0.5-1.1
		C-179.2,1455.3-179.5,1455.2-180,1455.2z"/>
</g>
</svg>
