<?xml version="1.0" encoding="utf-8"?>
<!-- Generator: Adobe Illustrator 19.0.0, SVG Export Plug-In . SVG Version: 6.00 Build 0)  -->
<svg version="1.1" id="Camada_1" xmlns="http://www.w3.org/2000/svg" xmlns:xlink="http://www.w3.org/1999/xlink" x="0px" y="0px"
	 viewBox="0 0 842 172" style="enable-background:new 0 0 842 172;" xml:space="preserve">
<style type="text/css">
	.st0{fill-rule:evenodd;clip-rule:evenodd;fill:#BF0024;}
</style>
<g>
	<path class="st0" d="M144.1,15.4c40.8,0,73.8,33,73.8,73.8c0,40.8-33,73.8-73.8,73.8c-40.8,0-73.8-33-73.8-73.8
		C70.3,48.4,103.3,15.4,144.1,15.4L144.1,15.4z M144.1,22.4c-36.9,0-66.8,29.9-66.8,66.8c0,36.9,29.9,66.8,66.8,66.8
		s66.8-29.9,66.8-66.8C210.9,52.3,181,22.4,144.1,22.4z"/>
	<path class="st0" d="M147.7,103.5v22.6h-7.2v-22.6c-3.5,0-8,0-9.7-0.1l-24,0.1c-2,0.1-4.1-0.4-6-1.4c-3.6-2.1-5.6-6-5.5-9.9
		c0-0.6,0.1-1.1,0.1-1.5c0.9-4.8,2.5-9.5,5.1-13.9c2.6-4.5,5.8-8.3,9.6-11.4c2.5-1.9,6-2.8,9.3-2.2c0.9-3.1,3.1-5.6,5.9-7.1
		c0.5-0.3,1-0.5,1.4-0.7c5.4-2,11.3-3,17.4-3c6.1,0,12,1.1,17.5,3.1c3.1,1.4,6,4.2,7.1,7.6c3.1-0.7,6.3,0,8.8,1.9
		c3.7,3.1,7.5,7.4,10.1,11.8c2.6,4.4,4.2,9.1,5.1,13.9c0.1,0.4,0.1,0.9,0.1,1.5c0.2,3.9-1.8,7.8-5.5,9.9c-1.9,1.1-4,1.6-6,1.4
		l-24-0.1C155.7,103.5,151.2,103.5,147.7,103.5L147.7,103.5z M173.3,70.7c-1.1-0.9-2.7-1-4.1-0.3c-0.7,0.4-1.2,1-1.5,1.7l-12.2,21.2
		c-0.4,0.6-0.4,1.3-0.1,1.9c0.4,0.6,1.1,1,1.7,0.9l24.4,0.1c0.7,0.1,1.5-0.1,2.1-0.5c1.3-0.7,1.9-2.1,1.8-3.5c0-0.1,0-0.2,0-0.4
		c-0.7-4-2.1-7.9-4.2-11.6c-2.1-3.7-4.9-6.9-8-9.5C173.4,70.8,173.3,70.8,173.3,70.7L173.3,70.7z M114.9,70.7c0,0-0.1,0.1-0.1,0.1
		c-3.1,2.6-5.8,5.8-8,9.5c-2.1,3.7-3.5,7.6-4.2,11.6c0,0.1,0,0.3,0,0.4c-0.1,1.4,0.6,2.8,1.8,3.5c0.7,0.4,1.4,0.5,2.1,0.5l24.4-0.1
		c0.7,0.1,1.4-0.3,1.7-0.9c0.4-0.6,0.3-1.4-0.1-1.9l-12.2-21.2c-0.3-0.7-0.8-1.3-1.5-1.7C117.6,69.7,116,69.9,114.9,70.7L114.9,70.7
		z M159.3,62.2c-0.1,0-0.1,0-0.2-0.1c-4.7-1.7-9.7-2.6-15-2.6c-5.2,0-10.3,0.9-14.9,2.6c-0.2,0.1-0.3,0.1-0.4,0.2
		c-1.5,0.7-2.6,2.3-2.6,4.1c0,1,0.3,1.9,0.8,2.6L142,95c0.4,0.8,1.1,1.3,2,1.3c0.9,0,1.6-0.5,2-1.2l15.1-26c0.5-0.7,0.9-1.7,0.9-2.6
		C162,64.5,160.9,62.9,159.3,62.2z"/>
	<polygon class="st0" points="282.1,50.6 300.1,87.5 318.1,50.6 345.4,50.6 345.4,124.4 318.1,124.4 318.1,87.5 300.1,124.4 
		282.1,87.5 282.1,124.4 254.8,124.4 254.8,50.6 	"/>
	<path class="st0" d="M399.4,61.6l-11.1,38.5h22.1L399.4,61.6L399.4,61.6z M354.1,124.4l21.2-73.8h48.2l21.2,73.8h-27.3l-3.5-12.1
		h-29.1l-3.5,12.1H354.1z"/>
	<path class="st0" d="M487,59c6.1,0,12.1,3.3,12.1,10c0,6.7-5.3,12.1-12.1,12.1h-5.9V59H487L487,59z M504.4,50.6h-51v73.8h27.3V93.6
		h23.8c11.9,0,21.5-9.6,21.5-21.5C525.9,60.2,516.3,50.6,504.4,50.6z"/>
	<polygon class="st0" points="535.4,50.6 607.9,50.6 607.9,62.7 562.6,62.7 562.6,81.4 607.9,81.4 607.9,93.6 562.6,93.6 
		562.6,124.4 535.4,124.4 	"/>
	<polygon class="st0" points="727.4,112.3 772.6,112.3 772.6,124.4 700.1,124.4 700.1,50.5 772.6,50.5 772.6,62.7 727.4,62.7 
		727.4,81.4 772.6,81.4 772.6,93.6 727.4,93.6 	"/>
	<path class="st0" d="M651,59c6,0,12.1,3.3,12.1,10c0,6.7-5.4,12.1-12.1,12.1h-5.9V59H651L651,59z M689.9,105.3v0.6
		C689.9,105.7,689.9,105.5,689.9,105.3L689.9,105.3z M689.9,105.9c0-0.2,0-0.4,0-0.6c-0.3-9.9-8.5-17.8-18.4-17.8
		c10.2,0,18.4-8.3,18.4-18.5c0-10.2-8.3-18.4-18.4-18.4h-23.8h-30.3v36.9v36.9l27.7,0V93.8h5.9c6.7,0,12.1,5.4,12.1,12.1
		c0,0.2,0,0.4,0,0.6v17.9h8.4h18.4V105.9z"/>
</g>
</svg>
