<?xml version="1.0" encoding="utf-8"?>
<!-- Generator: Adobe Illustrator 19.0.0, SVG Export Plug-In . SVG Version: 6.00 Build 0)  -->
<svg version="1.1" id="Camada_1" xmlns="http://www.w3.org/2000/svg" xmlns:xlink="http://www.w3.org/1999/xlink" x="0px" y="0px"
	 viewBox="0 0 842 172" style="enable-background:new 0 0 842 172;" xml:space="preserve">
<style type="text/css">
	.st0{fill-rule:evenodd;clip-rule:evenodd;fill:#B3B3B3;}
	.st1{fill:url(#SVGID_1_);}
	.st2{fill:url(#SVGID_2_);}
	.st3{fill:url(#SVGID_3_);}
	.st4{fill:url(#SVGID_4_);}
	.st5{fill:url(#SVGID_5_);}
</style>
<g>
	<rect x="198.6" y="7.7" class="st0" width="150.2" height="159.9"/>
	<rect x="392.4" y="7.7" class="st0" width="301.6" height="19.5"/>
	<rect x="392.4" y="147.9" class="st0" width="301.6" height="19.6"/>
	<g>
		<g>
			<path d="M403.3,65.8c0,0.9,0.1,1.7,0.4,2.3c0.8,2.1,3.2,2.6,5.2,2.6c1.8,0,4.5-0.6,4.5-3.2c0-1.8-1.5-2.3-7.6-4.1
				c-5.6-1.6-12-3.1-12-10.2c0-8.2,7-11.7,14.2-11.7c7.7,0,14.4,2.9,14.7,11.5h-10.3c0.2-1.3-0.4-2.2-1.3-2.8
				c-0.9-0.6-2.1-0.9-3.2-0.9c-1.5,0-3.9,0.4-3.9,2.4c0.2,2.5,5.2,3.1,10.2,4.4c5,1.4,9.9,3.7,9.9,10.2c0,9.2-8.5,12.2-16.3,12.2
				c-4,0-15.4-1.4-15.5-12.7H403.3z"/>
			<path d="M430,42.4h29.2v9h-18.3v4.4h16.7v8.4h-16.7v4.4h18.9v9H430V42.4z"/>
			<path d="M493,74.1c-2.4,3.1-6.2,4.4-10,4.4c-10.4,0-16.9-8.1-16.9-18.1c0-13.4,9.4-18.8,17.4-18.8c9,0,14.7,4.9,16.3,13.2h-10.4
				c-0.4-2.6-2.6-4.4-5.1-4.4c-7.5,0-7.2,7.9-7.2,10.3c0,3.3,1.3,9.1,8,9.1c2.5,0,5.1-1.3,5.6-3.9h-4.8v-7.6h14.4v19.4h-6.9
				L493,74.1z"/>
			<path d="M540,64c0,9.8-5.3,14.5-16.1,14.5c-10.8,0-16.1-4.7-16.1-14.5V42.4h10.9v19.2c0,3.6,0,8.1,5.3,8.1c5.1,0,5.1-4.5,5.1-8.1
				V42.4H540V64z"/>
			<path d="M547.9,42.4h20.7c6.2,0,11.5,3.4,11.5,10.1c0,3.7-1.7,7.5-5.3,8.8c3,1.1,4.8,4.4,5.2,8.8c0.1,1.7,0.2,5.9,1.2,7.6h-10.9
				c-0.5-1.8-0.7-3.6-0.9-5.4c-0.3-3.4-0.6-6.9-4.9-6.9h-5.8v12.3h-10.9V42.4z M558.7,57.8h5.7c2,0,4.8-0.3,4.8-3.5
				c0-2.2-1.2-3.5-5.4-3.5h-5.1V57.8z"/>
			<path d="M603.7,41.6c10.7,0,17.9,7.7,17.9,18.5c0,10.8-7.2,18.5-17.9,18.5c-10.7,0-17.9-7.7-17.9-18.5
				C585.8,49.3,593,41.6,603.7,41.6z M603.7,69.7c2.8,0,7-1.8,7-9.7c0-7.9-4.3-9.7-7-9.7c-2.8,0-7,1.8-7,9.7
				C596.7,67.9,600.9,69.7,603.7,69.7z"/>
			<path d="M637.2,65.8c0,0.9,0.2,1.7,0.4,2.3c0.8,2.1,3.2,2.6,5.2,2.6c1.8,0,4.5-0.6,4.5-3.2c0-1.8-1.5-2.3-7.6-4.1
				c-5.6-1.6-12-3.1-12-10.2c0-8.2,7-11.7,14.2-11.7c7.7,0,14.4,2.9,14.7,11.5h-10.3c0.2-1.3-0.4-2.2-1.3-2.8
				c-0.9-0.6-2.1-0.9-3.2-0.9c-1.5,0-3.9,0.4-3.9,2.4c0.2,2.5,5.2,3.1,10.2,4.4c5,1.4,9.9,3.7,9.9,10.2c0,9.2-8.5,12.2-16.3,12.2
				c-4,0-15.4-1.4-15.5-12.7H637.2z"/>
		</g>
		<g>
			<path d="M392.4,94h20.7c6.2,0,11.5,3.4,11.5,10.1c0,3.7-1.7,7.5-5.3,8.8c3,1.1,4.8,4.4,5.2,8.8c0.1,1.7,0.2,5.9,1.2,7.6h-10.9
				c-0.5-1.8-0.7-3.6-0.9-5.4c-0.3-3.4-0.6-6.9-4.9-6.9h-5.8v12.3h-10.9V94z M403.3,109.4h5.7c2,0,4.8-0.3,4.8-3.5
				c0-2.2-1.2-3.5-5.4-3.5h-5.1V109.4z"/>
			<path d="M432.3,94h10.9v35.3h-10.9V94z"/>
			<path d="M471,129.3h-12.2L448.3,94h11l5.8,21.4h0.1l5.7-21.4H482L471,129.3z"/>
			<path d="M494.2,94h10.6l12.9,35.3h-11.3l-1.5-5h-11.2l-1.6,5h-10.9L494.2,94z M502.8,116.7l-3.2-10.9h-0.1l-3.4,10.9H502.8z"/>
			<path d="M523.3,94h17.8c11.8,0,15.9,8.7,15.9,17.6c0,10.8-5.7,17.7-18,17.7h-15.7V94z M534.2,120.2h4.2c6.8,0,7.8-5.5,7.8-8.8
				c0-2.2-0.7-8.4-8.5-8.4h-3.5V120.2z"/>
			<path d="M574.8,94h10.6l12.9,35.3H587l-1.5-5h-11.2l-1.6,5h-10.9L574.8,94z M583.3,116.7l-3.2-10.9h-0.1l-3.4,10.9H583.3z"/>
			<path d="M621.4,129.3h-12.2L598.8,94h11l5.8,21.4h0.1l5.7-21.4h11.2L621.4,129.3z"/>
			<path d="M637.7,94h10.9v35.3h-10.9V94z"/>
			<path d="M667.1,94h10.6l12.9,35.3h-11.3l-1.5-5h-11.2l-1.6,5h-10.9L667.1,94z M675.7,116.7l-3.2-10.9h-0.1l-3.4,10.9H675.7z"/>
		</g>
	</g>
	<g>
		<linearGradient id="SVGID_1_" gradientUnits="userSpaceOnUse" x1="256.812" y1="27.5761" x2="311.659" y2="145.196">
			<stop  offset="0" style="stop-color:#64728F"/>
			<stop  offset="0.2523" style="stop-color:#627697"/>
			<stop  offset="0.6624" style="stop-color:#5E82AE"/>
			<stop  offset="1" style="stop-color:#558CC5"/>
		</linearGradient>
		<path class="st1" d="M210.3,49.2l37.4-6.7L268,84.4c0,0,13.6,25.5,32.6,19.8c5.4-2,7.5-8,7.5-8s2.6-7.7-0.6-17.2
			c-3.3-9.5-8.3-14.5-4.5-22.5c3.8-8.1,21.4-8.2,30.7,14c9.4,22.2,9.3,40.4,2.1,54.4c-7.1,14-20.9,22.7-42.1,20.2
			c-21.2-2.4-39.1-17.4-44.4-23.2c-5.3-5.8-11.1-12.9-12.8-16.1C234.8,102.8,210.3,49.2,210.3,49.2z"/>
		<linearGradient id="SVGID_2_" gradientUnits="userSpaceOnUse" x1="290.7365" y1="17.898" x2="335.8344" y2="114.6107">
			<stop  offset="0" style="stop-color:#64728F"/>
			<stop  offset="0.2523" style="stop-color:#627697"/>
			<stop  offset="0.6624" style="stop-color:#5E82AE"/>
			<stop  offset="1" style="stop-color:#558CC5"/>
		</linearGradient>
		<path class="st2" d="M377,95.4l-21.8,9.4l-22.3-41.1c0,0-7.9-12.3-16.2-14.4c-8.3-2-15,0.4-16.6,8.9c-1.6,8.5,1.8,16,2.8,17.8
			c1,1.8,6.9,11.5,2.4,19.4c-4.4,7.9-15.4,8.1-22.5,3c-7.1-5.1-12.5-15-15.2-24.3c-2.6-9.3-6.7-29.7,3.4-43.3
			c10.1-13.6,27.9-14.8,39.9-11.1c11.9,3.6,23.5,12.1,27,15.4c3.5,3.2,12.9,14.4,14.7,17.3C355.2,56.4,377,95.4,377,95.4z"/>
		<g>
			<linearGradient id="SVGID_3_" gradientUnits="userSpaceOnUse" x1="204.8242" y1="51.8184" x2="258.2256" y2="166.338">
				<stop  offset="0" style="stop-color:#F9FAFB"/>
				<stop  offset="1.555890e-002" style="stop-color:#F6F8FA"/>
				<stop  offset="0.2119" style="stop-color:#C7D6EB"/>
				<stop  offset="0.4015" style="stop-color:#9FBADE"/>
				<stop  offset="0.5797" style="stop-color:#81A5D3"/>
				<stop  offset="0.744" style="stop-color:#6B98CC"/>
				<stop  offset="0.8892" style="stop-color:#5C8FC7"/>
				<stop  offset="1" style="stop-color:#558DC5"/>
			</linearGradient>
			<path class="st3" d="M293.8,145.2c-21.2-2.4-39.1-17.4-44.4-23.2c-5.3-5.8-11.1-12.9-12.8-16.1c-1.8-3.1-26.2-56.7-26.2-56.7
				L162,76.4l21.8,46.1c0,0,9.7,15.2,22.5,22.3c12.7,7.1,20.8,8.9,29.7,8.5c7.4-0.3,51.7-5.8,66.8-7.7
				C299.9,145.7,296.9,145.6,293.8,145.2z"/>
		</g>
		<g>
			<linearGradient id="SVGID_4_" gradientUnits="userSpaceOnUse" x1="259.0649" y1="32.7848" x2="292.1779" y2="103.7959">
				<stop  offset="0" style="stop-color:#D3DEEE"/>
				<stop  offset="0.1333" style="stop-color:#CCD9EB"/>
				<stop  offset="0.3508" style="stop-color:#B7CAE5"/>
				<stop  offset="0.6253" style="stop-color:#97B3DA"/>
				<stop  offset="0.9433" style="stop-color:#6C97CB"/>
				<stop  offset="1" style="stop-color:#6292C9"/>
			</linearGradient>
			<path class="st4" d="M283,98.6c-7.1-5.1-12.5-15-15.2-24.3c-2.6-9.3-6.7-29.7,3.4-43.3c2.7-3.6,5.9-6.3,9.4-8.3v0l-42.6,21.6
				l9.7-1.7L268,84.4c0,0,8,15,20.3,19.4l8.3-2.1C292.1,102.6,286.9,101.4,283,98.6z"/>
		</g>
		<g>
			<linearGradient id="SVGID_5_" gradientUnits="userSpaceOnUse" x1="298.0659" y1="53.6251" x2="327.8959" y2="117.5956">
				<stop  offset="0" style="stop-color:#D3DEEE"/>
				<stop  offset="1.378953e-002" style="stop-color:#D1DCED"/>
				<stop  offset="0.2491" style="stop-color:#A9C0E0"/>
				<stop  offset="0.4727" style="stop-color:#8BABD6"/>
				<stop  offset="0.6786" style="stop-color:#769DCF"/>
				<stop  offset="0.8608" style="stop-color:#6895CA"/>
				<stop  offset="1" style="stop-color:#6292C9"/>
			</linearGradient>
			<path class="st5" d="M332.9,63.8c0,0-7.9-12.3-16.2-14.4c-8.3-2-15,0.4-16.6,8.9c-1.6,8.5,1.8,16,2.8,17.8
				c1,1.8,6.9,11.5,2.4,19.4c-2,3.5-5.2,5.5-8.8,6.2l-8.3,2.1c3.7,1.3,7.9,1.7,12.3,0.4c5.4-2,7.5-8,7.5-8s2.6-7.7-0.6-17.2
				c-3.3-9.5-8.3-14.5-4.5-22.5c3.8-8.1,21.4-8.2,30.7,14c6,14.1,8.1,26.6,7,37.4l14.5-3.1L332.9,63.8z"/>
		</g>
	</g>
</g>
</svg>
