<?xml version="1.0" encoding="utf-8"?>
<!-- Generator: Adobe Illustrator 19.0.0, SVG Export Plug-In . SVG Version: 6.00 Build 0)  -->
<svg version="1.1" id="Capa_1" xmlns="http://www.w3.org/2000/svg" xmlns:xlink="http://www.w3.org/1999/xlink" x="0px" y="0px"
	 viewBox="-253 375.9 88 90" style="enable-background:new -253 375.9 88 90;" xml:space="preserve">
<style type="text/css">
	.st0{fill:#FFFFFF;}
</style>
<g>
	<g>
		<path class="st0" d="M-219.9,450.8L-219.9,450.8c-0.7,0-1.3-0.5-1.5-1.2l-5.5-26.6h-20.3c-0.9,0-1.6-0.7-1.6-1.6s0.7-1.6,1.6-1.6
			h21.5c0.8,0,1.4,0.5,1.6,1.2l4.5,21.9l14.7-49c0.2-0.7,0.8-1.1,1.6-1.1c0.7,0,1.3,0.6,1.4,1.3l5.3,31.2h25c0.9,0,1.6,0.7,1.6,1.6
			s-0.7,1.6-1.6,1.6h-26.2c-0.8,0-1.4-0.5-1.6-1.3l-4.4-26l-14.6,48.4C-218.6,450.4-219.2,450.8-219.9,450.8z"/>
		<path class="st0" d="M-241.4,403.1c-0.9,0-1.5-0.7-1.5-1.6c0-0.3,0.1-0.5,0.2-0.7c4.4-7,10.9-12.4,18.6-15.6
			c0.8-0.3,1.7,0.1,2,0.9s-0.1,1.7-0.9,2c-7,2.9-13,7.9-17.1,14.3C-240.3,402.8-240.9,403.1-241.4,403.1z"/>
		<path class="st0" d="M-209,461.7c-22,0-39.8-17.8-39.8-39.8c0-5.6,1.2-11.1,3.4-16.2c0.4-0.8,1.3-1.1,2.1-0.7s1.1,1.3,0.7,2.1
			c-8.2,18.5,0.2,40.2,18.7,48.4c18.5,8.2,40.2-0.2,48.4-18.7c8.2-18.5-0.2-40.2-18.7-48.4c-4.7-2.1-9.7-3.1-14.8-3.1
			c-3.4,0-6.8,0.5-10.1,1.4c-0.8,0.4-1.7,0-2.1-0.8c-0.4-0.8,0-1.7,0.8-2.1c0.1-0.1,0.3-0.1,0.5-0.1c21.1-6.1,43.2,6.1,49.3,27.2
			s-6.1,43.2-27.2,49.3C-201.4,461.2-205.2,461.7-209,461.7L-209,461.7z"/>
	</g>
</g>
<g>
	<path class="st0" d="M-222.5,411.7v2.1h-1.5v-2.1c-1.8-0.1-3.6-0.7-4.6-1.6l0.8-1.9c0.9,0.7,2.3,1.3,3.7,1.4v-3.7
		c-2.1-0.5-4.3-1.2-4.3-3.8c0-1.9,1.4-3.6,4.3-3.9v-2.1h1.5v2.1c1.4,0.1,2.8,0.5,3.8,1.1l-0.8,1.9c-1-0.6-2-0.9-3-1v3.8
		c2.1,0.5,4.3,1.2,4.3,3.8C-218.1,409.7-219.5,411.4-222.5,411.7z M-224,403.7v-3.3c-1.3,0.2-1.9,0.9-1.9,1.7
		C-225.9,402.9-225.1,403.4-224,403.7z M-220.5,408c0-0.9-0.8-1.3-1.9-1.7v3.3C-221.1,409.4-220.5,408.8-220.5,408z"/>
</g>
</svg>
