<?xml version="1.0" encoding="utf-8"?>
<!-- Generator: Adobe Illustrator 19.0.0, SVG Export Plug-In . SVG Version: 6.00 Build 0)  -->
<svg version="1.1" id="Capa_1" xmlns="http://www.w3.org/2000/svg" xmlns:xlink="http://www.w3.org/1999/xlink" x="0px" y="0px"
	 viewBox="-253 375.9 88 90" style="enable-background:new -253 375.9 88 90;" xml:space="preserve">
<style type="text/css">
	.st0{fill:#FFFFFF;}
</style>
<path class="st0" d="M-188.5,440.9h-25c-0.8,0-1.5,0.7-1.5,1.5s0.7,1.5,1.5,1.5h25c0.8,0,1.5-0.7,1.5-1.5
	C-186.9,441.6-187.6,440.9-188.5,440.9z"/>
<path class="st0" d="M-188.5,411.6h-25c-0.8,0-1.5,0.7-1.5,1.5s0.7,1.5,1.5,1.5h25c0.8,0,1.5-0.7,1.5-1.5S-187.6,411.6-188.5,411.6z
	"/>
<path class="st0" d="M-188.5,425.9h-25c-0.8,0-1.5,0.7-1.5,1.5s0.7,1.5,1.5,1.5h25c0.8,0,1.5-0.7,1.5-1.5
	C-186.9,426.5-187.6,425.9-188.5,425.9z"/>
<path class="st0" d="M-184.8,389.6h-7.5c-0.7-2.9-3.3-5.1-6.5-5.1h-2.1h-2V384c0-3.4-2.7-6.1-6.1-6.1s-6.1,2.7-6.1,6.1v0.5h-1.7
	h-2.4c-3.1,0-5.8,2.2-6.5,5.1h-7.5c-4.9,0-8.9,4-8.9,8.9v56.4c0,4.9,4,8.9,8.9,8.9h48.4c4.9,0,8.9-4,8.9-8.9v-56.4
	C-175.9,393.6-179.9,389.6-184.8,389.6z M-219.3,387.5h2.4h3.2c0.6,0,1.1-0.3,1.4-0.7c0.5-0.7,0.4-1.6,0.1-2.3V384
	c0-1.7,1.4-3.1,3.1-3.1c1.7,0,3.1,1.4,3.1,3.1v0.5c-0.2,0.7-0.3,1.6,0.1,2.3c0.3,0.5,0.8,0.7,1.4,0.7h3.5h2.1c2,0,3.6,1.6,3.6,3.6
	s-1.6,3.6-3.6,3.6h-20.5c-2,0-3.6-1.6-3.6-3.6C-222.9,389.2-221.2,387.5-219.3,387.5z M-179,454.9c0,3.2-2.6,5.8-5.8,5.8h-48.4
	c-3.2,0-5.8-2.6-5.8-5.8v-56.4c0-3.2,2.6-5.8,5.8-5.8h7.5c0.7,2.9,3.3,5.1,6.5,5.1h20.5c3.1,0,5.8-2.2,6.5-5.1h7.5
	c3.2,0,5.8,2.6,5.8,5.8L-179,454.9L-179,454.9L-179,454.9z"/>
<g>
	<path class="st0" d="M-226.9,416.6v1.1h-0.8v-1.1c-1-0.1-1.9-0.4-2.4-0.8l0.4-1c0.5,0.4,1.2,0.7,2,0.7v-2c-1.1-0.3-2.3-0.6-2.3-2
		c0-1,0.7-1.9,2.3-2v-1.1h0.8v1.1c0.7,0,1.5,0.3,2,0.6l-0.4,1c-0.5-0.3-1.1-0.5-1.6-0.5v2c1.1,0.3,2.3,0.6,2.3,2
		C-224.6,415.6-225.3,416.4-226.9,416.6z M-227.7,412.4v-1.8c-0.7,0.1-1,0.5-1,0.9C-228.7,412-228.2,412.2-227.7,412.4z
		 M-225.8,414.7c0-0.5-0.4-0.7-1-0.9v1.7C-226.1,415.4-225.8,415.1-225.8,414.7z"/>
</g>
<g>
	<path class="st0" d="M-226.9,430.9v1.1h-0.8v-1.1c-1-0.1-1.9-0.4-2.4-0.8l0.4-1c0.5,0.4,1.2,0.7,2,0.7v-2c-1.1-0.3-2.3-0.6-2.3-2
		c0-1,0.7-1.9,2.3-2v-1.1h0.8v1.1c0.7,0,1.5,0.3,2,0.6l-0.4,1c-0.5-0.3-1.1-0.5-1.6-0.5v2c1.1,0.3,2.3,0.6,2.3,2
		C-224.6,429.9-225.3,430.8-226.9,430.9z M-227.7,426.7v-1.8c-0.7,0.1-1,0.5-1,0.9C-228.7,426.3-228.2,426.5-227.7,426.7z
		 M-225.8,429c0-0.5-0.4-0.7-1-0.9v1.7C-226.1,429.7-225.8,429.4-225.8,429z"/>
</g>
<g>
	<path class="st0" d="M-226.9,445.9v1.1h-0.8v-1.1c-1-0.1-1.9-0.4-2.4-0.8l0.4-1c0.5,0.4,1.2,0.7,2,0.7v-2c-1.1-0.3-2.3-0.6-2.3-2
		c0-1,0.7-1.9,2.3-2v-1.1h0.8v1.1c0.7,0,1.5,0.3,2,0.6l-0.4,1c-0.5-0.3-1.1-0.5-1.6-0.5v2c1.1,0.3,2.3,0.6,2.3,2
		C-224.6,444.9-225.3,445.8-226.9,445.9z M-227.7,441.7v-1.8c-0.7,0.1-1,0.5-1,0.9C-228.7,441.3-228.2,441.5-227.7,441.7z
		 M-225.8,444c0-0.5-0.4-0.7-1-0.9v1.7C-226.1,444.7-225.8,444.4-225.8,444z"/>
</g>
</svg>
