<?xml version="1.0" encoding="utf-8"?>
<!-- Generator: Adobe Illustrator 19.0.0, SVG Export Plug-In . SVG Version: 6.00 Build 0)  -->
<svg version="1.1" id="Camada_1" xmlns="http://www.w3.org/2000/svg" xmlns:xlink="http://www.w3.org/1999/xlink" x="0px" y="0px"
	 viewBox="0 0 842 172" style="enable-background:new 0 0 842 172;" xml:space="preserve">
<style type="text/css">
	.st0{fill:#475993;}
</style>
<path class="st0" d="M191.3,91.3h-18.9l10-33.1L191.3,91.3z M162.7,128.5l6.4-22h25.4l6,22H224L200.6,45c-1.3-4.9-4.3-7.2-9.4-7.2
	H158v7.8h2.8c3.5,0,5.3,1.4,5.3,4.1c0,1.8-0.4,3.3-1.7,7.4L141,128.5H162.7z"/>
<path class="st0" d="M253,128.5V44.7c0-4.4-2.5-6.9-6.6-6.9H226v7.8h1.3c3.5,0,4.9,1.5,4.9,5v77.9H253z"/>
<path class="st0" d="M289.4,128.5V44.7c0-4.4-2.5-6.9-6.6-6.9h-20.3v7.8h1.4c3.5,0,4.9,1.5,4.9,5v77.9H289.4z"/>
<path class="st0" d="M325.8,46c0-6-4.3-9.6-11.7-9.6c-7.3,0-11.7,3.6-11.7,9.6s4.4,9.6,11.7,9.6C321.5,55.6,325.8,52,325.8,46z
	 M325.8,128.5V66.7c0-4.4-2.5-7-6.6-7h-20.1V68h1.2c3.5,0,4.9,1.6,4.9,5.2v55.3H325.8z"/>
<path class="st0" d="M372.3,96v13.1c-3.5,3.6-7.9,5.8-11.5,5.8c-3.8,0-5.2-1.9-5.2-6.9c0-5,1.1-7.3,4.9-8.8
	C363.4,98,367,96.9,372.3,96z M344.3,80.1c6.9-3.4,14.5-5.3,20.4-5.3c5.6,0,7.6,2,7.6,8v1.5c-8.4,1.4-11.1,1.9-15.9,3
	c-2.8,0.7-5.3,1.5-7.8,2.6c-8.3,3.4-12.3,10-12.3,20.2c0,12.9,5.4,19.1,16.6,19.1c4.1,0,7.8-0.8,11.1-2.2c2.9-1.4,4.6-2.5,8.8-5.9v1
	c0,4.2,2.2,6.4,6.4,6.4h19.3v-7.8h-1c-3.6,0-4.9-1.5-4.9-5.5V83c0-17.3-5.9-23.2-22.8-23.2c-5.5,0-10.8,0.7-16,1.9
	c-5.2,1.2-7.9,2.3-14.2,5.4L344.3,80.1z"/>
<path class="st0" d="M430.5,128.5V82.3c3.7-4,7.6-5.7,12-5.7c4.7,0,5.9,1.8,5.9,8.6v43.3H469V81.7c0-10.8-0.8-14.3-4.3-18
	c-2.9-3.2-7.2-4.8-12.9-4.8c-8.3,0-14.2,2.7-22.2,10.4v-2.8c0-4.5-2.1-6.8-6.4-6.8h-19.6V68h1.2c3.5,0,4.9,1.6,4.9,5.2v55.3H430.5z"
	/>
<path class="st0" d="M532.5,114.6h-29.1L531.1,75V61.1h-44c-5,0-7.3,2.3-7.3,7.3v12.3h8.2v-1.2c0-3.1,1.6-4.6,4.9-4.6h15l-28.2,40
	v13.6h52.6V114.6z"/>
<path class="st0" d="M644.1,124.2V48.5c0-6-2-8.1-7.8-8.1h-17v8.2h1h1.8c0.6,0,1.3,0.4,1.8,0.9c0.8,0.9,1,1.9,1,3.9v70.6H644.1z
	 M653.8,124.2H673V66.9c0-5.8-2.1-8.1-7.9-8.1h-11.3V124.2z M616.7,124.2V58.9h-11.4c-5.6,0-7.9,2.3-7.9,8.1v57.3H616.7z
	 M692.3,85.8c0,34.3-24.4,59.2-57.7,59.2c-33.4,0-57.7-24.9-57.7-59.2c0-34.1,24.3-59,57.7-59C667.8,26.7,692.3,51.7,692.3,85.8z
	 M706,85.8c0-41.7-30.5-72.8-71.4-72.8c-40.9,0-71.5,31.1-71.5,72.8c0,41.8,30.6,72.9,71.5,72.9C675.5,158.7,706,127.6,706,85.8z"/>
</svg>
