<?xml version="1.0" encoding="utf-8"?>
<!-- Generator: Adobe Illustrator 19.0.0, SVG Export Plug-In . SVG Version: 6.00 Build 0)  -->
<svg version="1.1" id="Layer_1" xmlns="http://www.w3.org/2000/svg" xmlns:xlink="http://www.w3.org/1999/xlink" x="0px" y="0px"
	 viewBox="0 0 316.7 172" style="enable-background:new 0 0 316.7 172;" xml:space="preserve">
<style type="text/css">
	.st0{fill:#FFFFFF;}
</style>
<g id="XMLID_1_">
	<g id="XMLID_2_">
		<path id="XMLID_3_" class="st0" d="M15.1,168.8h-1.3v-9h-0.1l-3.3,9H9.6l-3.3-9H6.2v9H5.1v-10.3H7l3.1,8.2l3-8.2h1.9V168.8z"/>
		<path id="XMLID_5_" class="st0" d="M23.2,168.8v-10.3h1.3v10.3H23.2z"/>
		<path id="XMLID_7_" class="st0" d="M40.1,165.6c-0.5,2-1.6,3.4-3.8,3.4c-3,0-4.2-2.9-4.2-5.4c0-2.7,1.3-5.2,4.3-5.2
			c2.1,0,3.3,1.4,3.7,3.3l-1.2,0.2c-0.4-1.3-1-2.4-2.5-2.4c-2.2,0-2.8,2.4-2.8,4.2c0,0.8,0.1,1.8,0.5,2.6c0.4,0.9,1.2,1.6,2.3,1.6
			c1.6,0,2.3-1.2,2.6-2.5L40.1,165.6z"/>
		<path id="XMLID_9_" class="st0" d="M53.8,168.8l-1.9-4.5H49v4.5h-1.3v-10.3h3.9c0.8,0,1.6,0.1,2.3,0.6s1.1,1.4,1.1,2.3
			c0,1.2-0.7,2.3-1.9,2.6l2,4.8H53.8z M51.4,163.3c0.7,0,1.3,0,1.8-0.6c0.4-0.4,0.5-0.9,0.5-1.4c0-0.6-0.2-1.1-0.7-1.4
			c-0.4-0.3-0.9-0.3-1.4-0.3H49v3.7H51.4z"/>
		<path id="XMLID_12_" class="st0" d="M62.1,163.7c0-2.6,1.3-5.4,4.2-5.4c2.9,0,4.2,2.6,4.2,5.2c0,2.5-1.3,5.4-4.2,5.4
			C63.4,169,62.1,166.3,62.1,163.7z M69.2,163.6c0-0.9-0.1-2-0.6-2.8c-0.5-0.8-1.3-1.4-2.2-1.4c-2.3,0-2.9,2.5-2.9,4.3
			c0,1.8,0.7,4.2,2.9,4.2C68.5,167.9,69.2,165.4,69.2,163.6z"/>
		<path id="XMLID_15_" class="st0" d="M84.3,168.8h-6.1v-10.3h1.3v9.1h4.8V168.8z"/>
		<path id="XMLID_17_" class="st0" d="M98.1,168.8h-6.7v-10.3H98v1.1h-5.2v3.3h4.1v1h-4.1v3.8h5.4V168.8z"/>
		<path id="XMLID_19_" class="st0" d="M113,168.8h-1.3l-5.2-9v9h-1.1v-10.3h1.6l4.9,8.4v-8.4h1.1V168.8z"/>
		<path id="XMLID_21_" class="st0" d="M121.2,158.5h3.3c1.5,0,2.6,0.3,3.5,1.5c0.9,1,1.2,2.3,1.2,3.7c0,1.3-0.3,2.5-1.1,3.5
			c-0.8,1.2-1.9,1.6-3.3,1.6h-3.7V158.5z M124.3,167.7c1.2,0,2.1-0.3,2.8-1.3c0.5-0.8,0.8-1.8,0.8-2.8c0-1-0.3-2.1-0.9-3
			c-0.7-0.9-1.5-1-2.6-1h-1.9v8.1H124.3z"/>
		<path id="XMLID_24_" class="st0" d="M136.8,168.8v-10.3h1.3v10.3H136.8z"/>
		<path id="XMLID_26_" class="st0" d="M153.8,168.8h-1.3l-5.2-9v9h-1.1v-10.3h1.6l4.9,8.4v-8.4h1.1V168.8z"/>
		<path id="XMLID_28_" class="st0" d="M169.7,168.9h-0.8l-0.3-1.3c-0.6,0.9-1.7,1.3-2.8,1.3c-1.4,0-2.4-0.5-3.2-1.6
			c-0.8-1.1-1.1-2.3-1.1-3.6c0-2.7,1.4-5.4,4.5-5.4c2,0,3.2,1.1,3.7,3l-1.2,0.3c-0.3-1.3-1.2-2.2-2.6-2.2c-2.3,0-3,2.4-3,4.3
			c0,0.9,0.2,1.9,0.6,2.7c0.5,0.9,1.4,1.5,2.4,1.5c1.6,0,2.6-1.1,2.6-2.6v-0.6h-2.6v-1.1h3.9V168.9z"/>
		<path id="XMLID_30_" class="st0" d="M194.8,168.8h-1.3l-1-3h-3.8l-0.9,3h-1.1l3.3-10.3h1.5L194.8,168.8z M190.5,159.9l-1.6,4.9
			h3.2L190.5,159.9z"/>
		<path id="XMLID_33_" class="st0" d="M207.8,168.8l-1.9-4.5h-2.8v4.5h-1.3v-10.3h3.9c0.8,0,1.7,0.1,2.3,0.6
			c0.7,0.5,1.1,1.4,1.1,2.3c0,1.2-0.7,2.3-1.9,2.6l2,4.8H207.8z M205.5,163.3c0.7,0,1.3,0,1.8-0.6c0.4-0.4,0.5-0.9,0.5-1.4
			c0-0.6-0.2-1.1-0.7-1.4c-0.5-0.3-0.9-0.3-1.4-0.3h-2.6v3.7H205.5z"/>
		<path id="XMLID_36_" class="st0" d="M224.6,168.9h-0.8l-0.3-1.3c-0.6,0.9-1.7,1.3-2.8,1.3c-1.4,0-2.4-0.5-3.2-1.6
			c-0.8-1.1-1.1-2.3-1.1-3.6c0-2.7,1.4-5.4,4.5-5.4c2,0,3.2,1.1,3.7,3l-1.2,0.3c-0.3-1.3-1.2-2.2-2.6-2.2c-2.3,0-3,2.4-3,4.3
			c0,0.9,0.2,1.9,0.6,2.7c0.5,0.9,1.4,1.5,2.4,1.5c1.6,0,2.6-1.1,2.6-2.6v-0.6h-2.6v-1.1h3.9V168.9z"/>
		<path id="XMLID_38_" class="st0" d="M239.1,168.8h-6.7v-10.3h6.5v1.1h-5.2v3.3h4.1v1h-4.1v3.8h5.4V168.8z"/>
		<path id="XMLID_40_" class="st0" d="M254,168.8h-1.3l-5.2-9v9h-1.1v-10.3h1.6l4.9,8.4v-8.4h1.1V168.8z"/>
		<path id="XMLID_42_" class="st0" d="M265.3,168.8H264v-9.2h-2.9v-1.1h7.1v1.1h-2.9V168.8z"/>
		<path id="XMLID_44_" class="st0" d="M275.4,168.8v-10.3h1.3v10.3H275.4z"/>
		<path id="XMLID_46_" class="st0" d="M292.4,168.8h-1.3l-5.2-9v9h-1.1v-10.3h1.6l4.9,8.4v-8.4h1.1V168.8z"/>
		<path id="XMLID_48_" class="st0" d="M307.6,168.8h-1.3l-1-3h-3.8l-0.9,3h-1.1l3.3-10.3h1.5L307.6,168.8z M303.3,159.9l-1.6,4.9
			h3.2L303.3,159.9z"/>
	</g>
	<path id="XMLID_170_" class="st0" d="M282.1,77.8h-23.4c-2,0-3.8-1.1-4.7-2.9l-29.5-59.1c-2.2-4.4-6.7-7.2-11.7-7.2l-0.2,0
		c0,0,0,0,0,0h-27.5c-4.9,0-9.4,2.8-11.7,7.2l-18.4,36.5l-18.3-36.5c-2.2-4.4-6.7-7.2-11.7-7.2l-0.1,0c0,0,0,0,0,0H125H97.6h-0.1
		c-4.9,0-9.4,2.8-11.7,7.2l-43.8,87.2C37.7,111.7,44,122,53.7,122l27.6,0c4.9,0,9.5-2.8,11.7-7.2l18.3-36.6l17.8,35.4
		c1.8,3.2,4.6,6.8,8.7,7.9c1.2,0.3,2.4,0.5,3.6,0.5h27.5c4.9,0,9.5-2.8,11.7-7.2L199,78.1l18.5,36.7c2.2,4.4,6.7,7.2,11.7,7.2
		l44.3,0c4.9,0,9.4-2.8,11.7-7.2l8.7-18C298.1,88.2,291.8,77.8,282.1,77.8z"/>
</g>
</svg>
